<svg xmlns="http://www.w3.org/2000/svg" viewBox="0 0 466.25 132.89" width="466.25" height="132.89"><defs><style>.cls-1,.cls-2{fill:#fff;}.cls-2{fill-rule:evenodd;}</style></defs><title>leeds</title><g id="Layer_2" data-name="Layer 2"><g id="Layer_1-2" data-name="Layer 1"><path class="cls-1" d="M439.17,67.59a3,3,0,1,1,3-3,3,3,0,0,1-3,3m0-6.88A3.86,3.86,0,1,0,443,64.58,3.86,3.86,0,0,0,439.17,60.71Zm-7.87-7.49h1.27V41.51h2.77V39.4h-4.09Zm4.23-23.86h1.13V28.29H434.8v3.18h.73Zm1.54,23.86h1.26V41.51h2.78V39.4H437ZM430,37.45h18.28l.89-1.17h-20Zm12.84,15.77h1.25V41.51h2.8V39.4h-4.11ZM453,58.57h-6V56.16H431.2v2.41h-5.95V53.22h1.07V35.55H428V26.4h22.27v9.15H452V53.22h1Zm-21.5-38.7h15.26l.8,5.59H430.71Zm7.63-5.47L446.74,19h-15.2ZM379,0V85h44.55V59.46h7.61V85h1V57h13.85V85H447V59.46h7.63V85h10.23V0Zm59.9,29.36h1.11V28.29h-1.86v3.18h.75Zm3.38,0h1.12V28.29H441.6v3.18h.72Z"/><path class="cls-1" d="M27,120.22V101.15H20.47v19.5a6.71,6.71,0,0,1-1.57,4.82c-1.14,1.29-3,2-5.44,2a6.84,6.84,0,0,1-5.24-2,7.35,7.35,0,0,1-1.77-5.11V101.15H0v19.74c0,3.65,1,6.73,3.08,8.77,2.25,2.19,5.65,3.23,10.26,3.23,4.76,0,8.12-1.28,10.46-3.6C25.91,127.15,27,124,27,120.22"/><path class="cls-2" d="M64.43,132.43V101.15H58V117.1c0,1.32,0,3.35.1,4.84H58c-.85-1.28-1.71-2.54-2.94-4.09l-13.11-16.7H35.34v31.28h6.48V115.28c0-1.4,0-3.3-.11-4.34h.11c.92,1.36,1.79,2.59,3,4.11l13.57,17.38h6.05"/><rect class="cls-1" x="73.2" y="101.16" width="6.52" height="31.27"/><path class="cls-1" d="M114.54,101.15h-6.67L100.8,118a59.19,59.19,0,0,0-2.09,5.61h-.09c-.63-1.77-1.34-3.75-2.15-5.79L90.1,101.15H83l12.84,31.51h4.84l13.89-31.51"/><polyline class="cls-1" points="136.33 132.43 136.33 127.09 124.73 127.09 124.73 119.12 134.7 119.12 134.7 113.76 124.73 113.76 124.73 106.48 134.66 106.48 136.38 101.15 118.23 101.15 118.23 132.43 136.33 132.43"/><path class="cls-2" d="M157.5,110.82a4.68,4.68,0,0,1-4.8,4.77H150v-9h2.74c3.08,0,4.8,1.84,4.8,4.24m10.08,21.61c-4.71-8-7.74-13.26-9.33-14.16v-.06a8.93,8.93,0,0,0,5.69-8.09c0-4.83-3-9-11.37-9h-9.13v31.28H150V120.34h2.42c1.13.43,3,4,7.78,12.09Z"/><path class="cls-1" d="M190.34,123.61c0-9.82-13.46-9.32-13.46-14.76,0-1.81,1.82-2.85,4.14-2.85a15.39,15.39,0,0,1,7.46,2.29l.11-5.62a16.35,16.35,0,0,0-7.89-1.89c-6.89,0-10.65,4.17-10.65,8.93a8.2,8.2,0,0,0,2,5.56c3.83,4.32,11.42,5,11.42,9.18,0,2.36-2.55,3.21-4.85,3.21a13,13,0,0,1-7.18-2.42L168.9,130a17.73,17.73,0,0,0,10,2.94c6.42,0,11.46-3.56,11.46-9.28"/><rect class="cls-1" x="195.62" y="101.16" width="6.5" height="31.27"/><polyline class="cls-1" points="232.28 101.15 206.69 101.15 206.69 106.48 215.85 106.48 215.85 132.43 222.41 132.43 222.41 106.48 230.81 106.48 232.28 101.15"/><path class="cls-1" d="M260.84,101.15h-6.79L249.26,110c-.72,1.31-1.59,3-2.25,4.41h-.09c-.66-1.43-1.57-3.18-2.31-4.51l-4.77-8.73h-7.17L243.51,120v12.39H250v-12.3l10.82-19"/><path class="cls-2" d="M299,116.89c0,6.84-3.94,10.77-9.28,10.77s-9.36-3.93-9.36-10.77,4-10.79,9.36-10.79,9.28,4,9.28,10.79m6.9-.15a16.22,16.22,0,0,0-3.94-11.12c-2.82-3-7.08-4.84-12.24-4.84a15.85,15.85,0,0,0-11.63,4.66,16.46,16.46,0,0,0-4.51,11.69,15.65,15.65,0,0,0,5,12,16.33,16.33,0,0,0,11.15,3.8,15.5,15.5,0,0,0,16.18-16.15Z"/><polyline class="cls-1" points="330.09 101.15 311.89 101.15 311.89 132.43 318.42 132.43 318.42 119.21 328.31 119.21 328.29 113.89 318.42 113.89 318.42 106.48 328.42 106.48 330.09 101.15"/><polyline class="cls-1" points="363.34 132.39 363.34 127.03 352.35 127.03 352.35 101.22 345.91 101.22 345.91 132.39 363.34 132.39"/><polyline class="cls-1" points="385.67 132.39 385.67 127.08 374.1 127.08 374.1 119.12 384.04 119.12 384.04 113.77 374.1 113.77 374.1 106.5 383.99 106.5 385.72 101.22 367.6 101.22 367.6 132.39 385.67 132.39"/><polyline class="cls-1" points="409.35 132.39 409.35 127.08 397.79 127.08 397.79 119.12 407.73 119.12 407.73 113.77 397.79 113.77 397.79 106.5 407.69 106.5 409.37 101.22 391.29 101.22 391.29 132.39 409.35 132.39"/><path class="cls-2" d="M435.78,116.72c0,5.45-3,10.32-10.75,10.32h-3.56V106.61h3.45c7.16,0,10.86,4,10.86,10.11m7-.18c0-9.32-6.26-15.32-17.38-15.32H415v31.17h9.81C435.59,132.39,442.74,126.13,442.74,116.54Z"/><path class="cls-1" d="M466.25,123.62c0-9.81-13.41-9.33-13.41-14.72,0-1.82,1.79-2.86,4.12-2.86a15.33,15.33,0,0,1,7.44,2.28l.09-5.6a16,16,0,0,0-7.88-1.89c-6.86,0-10.61,4.17-10.61,8.9a8.17,8.17,0,0,0,2,5.55c3.79,4.31,11.37,5,11.37,9.15,0,2.37-2.56,3.22-4.83,3.22a12.77,12.77,0,0,1-7.15-2.43l-2.52,4.69a17.55,17.55,0,0,0,10,2.94c6.39,0,11.42-3.55,11.42-9.23"/></g></g></svg>