<?xml version="1.0" encoding="utf-8"?>
<!-- Generator: Adobe Illustrator 23.0.2, SVG Export Plug-In . SVG Version: 6.00 Build 0)  -->
<svg version="1.1" id="Layer_1" xmlns="http://www.w3.org/2000/svg" xmlns:xlink="http://www.w3.org/1999/xlink" x="0px" y="0px"
	 viewBox="0 0 900 217" width="900" height="217" style="enable-background:new 0 0 900 217;" xml:space="preserve">
<style type="text/css">
	.st0{fill:#005EB8;}
	.st1{fill:#FFFFFF;}
</style>
<rect x="687.8" y="9.6" class="st0" width="203.5" height="77.8"/>
<g>
	<path class="st1" d="M894,90.6v-85H682.8v85H894L894,90.6z M767.7,13.8l-14.6,68.4h-22.9l-14.4-47.4h-0.2L706,82.2h-17.3l14.7-68.4
		h23l14.1,47.5h0.2l9.7-47.5L767.7,13.8L767.7,13.8z M833.2,13.8l-14.3,68.4h-18.4l6.1-29.3h-21.8l-6.1,29.3h-18.4l14.3-68.4H793
		L787.6,40h21.8l5.4-26.2L833.2,13.8L833.2,13.8z M886.1,15.6l-4.4,13.6c-3.5-1.7-8.4-3.1-15.2-3.1c-7.3,0-13.2,1.1-13.2,6.6
		c0,9.7,26.7,6.1,26.7,26.9c0,18.9-17.6,23.8-33.6,23.8c-7.1,0-15.3-1.7-21.3-3.5l4.3-13.9c3.6,2.4,10.9,3.9,16.9,3.9
		c5.7,0,14.7-1.1,14.7-8.1c0-11-26.7-6.9-26.7-26.2c0-17.7,15.6-23,30.7-23C873.5,12.6,881.5,13.5,886.1,15.6L886.1,15.6z"/>
	<g>
		<path class="st1" d="M31.2,123.9c-2.6-1.1-5.6-1.8-8.5-1.8s-6.6,1.3-6.6,5.8c0,7.3,18.4,4.2,18.4,18.2c0,9.2-7.3,12.7-15.7,12.7
			c-4.6,0-6.6-0.6-10.7-1.6l0.8-7.6c2.9,1.6,6.2,2.6,9.5,2.6c3.2,0,7.4-1.6,7.4-5.4c0-8-18.4-4.7-18.4-18.5
			c0-9.4,7.3-12.8,14.6-12.8c3.6,0,7,0.5,10,1.5L31.2,123.9z"/>
		<path class="st1" d="M55.5,126.5c9.2,0,16.2,6.2,16.2,16.4c0,8.9-5.9,16-16.2,16c-10.2,0-16.1-7.1-16.1-16
			C39.3,132.7,46.3,126.5,55.5,126.5z M55.5,152.6c6.2,0,7.8-5.5,7.8-10.7c0-4.7-2.5-9.2-7.8-9.2c-5.2,0-7.7,4.6-7.7,9.2
			C47.7,147,49.3,152.6,55.5,152.6z"/>
		<path class="st1" d="M106.3,158.1h-7.6v-4.2h-0.1c-2.5,3-5.9,4.9-10.1,4.9c-7.3,0-10.5-5.2-10.5-12.1v-19.5h8v16.5
			c0,3.8,0.1,8.9,5.2,8.9c5.8,0,7.1-6.3,7.1-10.3v-15.1h8V158.1z"/>
		<path class="st1" d="M117.3,133.1h-5.9v-5.9h5.9v-6.1l8-2.6v8.8h7.1v5.9h-7.1v14.4c0,2.6,0.7,5.1,3.8,5.1c1.4,0,2.8-0.3,3.7-0.8
			l0.2,6.4c-1.7,0.5-3.5,0.7-5.9,0.7c-6.3,0-9.8-3.9-9.8-10C117.3,149,117.3,133.1,117.3,133.1z"/>
		<path class="st1" d="M138,113.1h8v18.3h0.1c2-3,5.5-4.9,9.7-4.9c7.3,0,10.5,5.2,10.5,12.1v19.5h-8v-16.5c0-3.8-0.1-8.9-5.2-8.9
			c-5.8,0-7.1,6.3-7.1,10.3v15.1h-8V113.1z"/>
		<path class="st1" d="M199.6,122.9h-12v-6.6H220v6.6h-12v35.2h-8.4V122.9z"/>
		<path class="st1" d="M230.9,149.8h0.1l7.4-22.6h8.2L235,157.9c-2.6,6.8-4.4,13.6-12.8,13.6c-1.9,0-3.8-0.3-5.7-0.8l0.5-5.9
			c1,0.4,2.2,0.5,4.1,0.5c3.2,0,5.2-2.2,5.2-5.5l-11.8-32.5h8.9L230.9,149.8z"/>
		<path class="st1" d="M251.4,127.2h7.6v4.2h0.1c2.5-3.5,5.9-4.9,10.1-4.9c7.3,0,10.5,5.2,10.5,12.1v19.5h-8v-16.5
			c0-3.8-0.1-8.9-5.2-8.9c-5.8,0-7.1,6.3-7.1,10.3v15.1h-8V127.2z"/>
		<path class="st1" d="M312.8,156.4c-2.9,1.6-6.3,2.5-10.6,2.5c-10.2,0-16.1-5.9-16.1-16c0-8.9,4.7-16.3,14.3-16.3
			c11.5,0,14.7,7.9,14.7,18.7h-21.4c0.4,5,3.8,7.8,8.8,7.8c3.9,0,7.3-1.4,10.3-3.1L312.8,156.4L312.8,156.4z M307.4,139.6
			c-0.2-3.9-2-7.3-6.5-7.3s-6.8,3.1-7.1,7.3H307.4z"/>
		<path class="st1" d="M339.7,133.7c-2.5-0.8-4.3-1.3-7.2-1.3c-2.2,0-4.7,0.8-4.7,3.4c0,4.9,14,1.8,14,13c0,7.2-6.4,10.1-13,10.1
			c-3.1,0-6.2-0.5-9.1-1.3l0.5-6.6c2.5,1.3,5.2,2,7.9,2c2,0,5.3-0.8,5.3-3.8c0-6.1-14-1.9-14-13.1c0-6.7,5.8-9.6,12.1-9.6
			c3.8,0,6.2,0.6,8.8,1.1L339.7,133.7z"/>
		<path class="st1" d="M348.2,113.9h8v7.7h-8V113.9z M348.2,127.2h8v30.9h-8V127.2z"/>
		<path class="st1" d="M385.3,154.6h-0.1c-2.4,3-5.7,4.2-9.5,4.2c-9.5,0-13-7.8-13-16.3s3.5-16.1,13-16.1c4,0,6.8,1.4,9.2,4.3h0.1
			v-17.6h8v45h-7.8L385.3,154.6L385.3,154.6z M377.9,152.6c5.3,0,7.1-5.6,7.1-10c0-4.3-2-9.8-7.2-9.8s-6.7,5.7-6.7,9.8
			C371.1,146.8,372.6,152.6,377.9,152.6z"/>
		<path class="st1" d="M426.1,156.4c-2.9,1.6-6.3,2.5-10.6,2.5c-10.2,0-16.1-5.9-16.1-16c0-8.9,4.7-16.3,14.3-16.3
			c11.5,0,14.7,7.9,14.7,18.7H407c0.4,5,3.8,7.8,8.8,7.8c3.9,0,7.3-1.4,10.3-3.1L426.1,156.4L426.1,156.4z M420.7,139.6
			c-0.2-3.9-2-7.3-6.5-7.3s-6.8,3.1-7.1,7.3H420.7z"/>
		<path class="st1" d="M452.8,128.9c3.1-1.4,7.3-2.3,10.7-2.3c9.4,0,13.3,3.9,13.3,13v4c0,3.1,0.1,5.5,0.1,7.7
			c0.1,2.3,0.2,4.5,0.4,6.9h-7.1c-0.3-1.6-0.3-3.7-0.4-4.6h-0.1c-1.9,3.4-5.9,5.3-9.5,5.3c-5.5,0-10.8-3.3-10.8-9.2
			c0-4.6,2.2-7.3,5.3-8.8c3.1-1.5,7-1.8,10.4-1.8h4.4c0-5-2.2-6.7-7-6.7c-3.4,0-6.8,1.3-9.5,3.4L452.8,128.9z M462.2,153
			c2.5,0,4.4-1.1,5.6-2.8c1.3-1.7,1.7-4,1.7-6.4H466c-3.6,0-8.9,0.6-8.9,5.3C457.1,151.8,459.3,153,462.2,153z"/>
		<path class="st1" d="M484.8,127.2h7.6v4.2h0.1c2.5-3.5,5.9-4.9,10.1-4.9c7.3,0,10.5,5.2,10.5,12.1v19.5h-8v-16.5
			c0-3.8-0.1-8.9-5.2-8.9c-5.8,0-7.1,6.3-7.1,10.3v15.1h-8L484.8,127.2L484.8,127.2z"/>
		<path class="st1" d="M542,154.6L542,154.6c-2.5,3-5.8,4.2-9.6,4.2c-9.5,0-13-7.8-13-16.3s3.5-16.1,13-16.1c4,0,6.8,1.4,9.2,4.3
			h0.1v-17.6h8v45H542V154.6z M534.6,152.6c5.3,0,7.1-5.6,7.1-10c0-4.3-2-9.8-7.2-9.8s-6.7,5.7-6.7,9.8
			C527.8,146.8,529.3,152.6,534.6,152.6z"/>
		<path class="st1" d="M598,123.9c-2.6-1.1-5.6-1.8-8.5-1.8s-6.6,1.3-6.6,5.8c0,7.3,18.4,4.2,18.4,18.2c0,9.2-7.3,12.7-15.7,12.7
			c-4.6,0-6.6-0.6-10.7-1.6l0.8-7.6c2.9,1.6,6.2,2.6,9.5,2.6c3.2,0,7.4-1.6,7.4-5.4c0-8-18.4-4.7-18.4-18.5
			c0-9.4,7.3-12.8,14.6-12.8c3.6,0,7,0.5,10,1.5L598,123.9z"/>
		<path class="st1" d="M636.5,158.1h-7.6v-4.2h-0.1c-2.5,3-5.9,4.9-10.1,4.9c-7.3,0-10.5-5.2-10.5-12.1v-19.5h8v16.5
			c0,3.8,0.1,8.9,5.2,8.9c5.8,0,7.1-6.3,7.1-10.3v-15.1h8L636.5,158.1L636.5,158.1z"/>
		<path class="st1" d="M644.8,127.2h7.6v4.2h0.1c2.5-3.5,5.9-4.9,10.1-4.9c7.3,0,10.5,5.2,10.5,12.1v19.5h-8v-16.5
			c0-3.8-0.1-8.9-5.2-8.9c-5.8,0-7.1,6.3-7.1,10.3v15.1h-8L644.8,127.2L644.8,127.2z"/>
		<path class="st1" d="M702,154.6L702,154.6c-2.5,3-5.8,4.2-9.6,4.2c-9.5,0-13-7.8-13-16.3s3.5-16.1,13-16.1c4,0,6.8,1.4,9.2,4.3
			h0.1v-17.6h8v45H702V154.6z M694.6,152.6c5.3,0,7.1-5.6,7.1-10c0-4.3-2-9.8-7.2-9.8s-6.7,5.7-6.7,9.8
			C687.9,146.8,689.4,152.6,694.6,152.6z"/>
		<path class="st1" d="M742.9,156.4c-2.9,1.6-6.3,2.5-10.6,2.5c-10.2,0-16.1-5.9-16.1-16c0-8.9,4.7-16.3,14.3-16.3
			c11.5,0,14.7,7.9,14.7,18.7h-21.4c0.4,5,3.8,7.8,8.8,7.8c3.9,0,7.3-1.4,10.3-3.1V156.4z M737.5,139.6c-0.2-3.9-2-7.3-6.5-7.3
			s-6.8,3.1-7.1,7.3H737.5z"/>
		<path class="st1" d="M751.6,127.2h7.1v7h0.1c0.4-2.9,3.7-7.7,8.5-7.7c0.8,0,1.6,0,2.5,0.2v8.1c-0.7-0.4-2.2-0.7-3.6-0.7
			c-6.5,0-6.5,8.2-6.5,12.6v11.4h-8L751.6,127.2L751.6,127.2z"/>
		<path class="st1" d="M775,113.1h8v45h-8V113.1z"/>
		<path class="st1" d="M792.9,128.9c3.1-1.4,7.3-2.3,10.7-2.3c9.4,0,13.3,3.9,13.3,13v4c0,3.1,0.1,5.5,0.1,7.7
			c0.1,2.3,0.2,4.5,0.4,6.9h-7.1c-0.3-1.6-0.3-3.7-0.4-4.6h-0.1c-1.9,3.4-5.9,5.3-9.5,5.3c-5.5,0-10.8-3.3-10.8-9.2
			c0-4.6,2.2-7.3,5.3-8.8s7-1.8,10.4-1.8h4.4c0-5-2.2-6.7-7-6.7c-3.4,0-6.8,1.3-9.5,3.4L792.9,128.9z M802.3,153
			c2.5,0,4.4-1.1,5.6-2.8c1.3-1.7,1.7-4,1.7-6.4h-3.5c-3.6,0-8.9,0.6-8.9,5.3C797.2,151.8,799.4,153,802.3,153z"/>
		<path class="st1" d="M824.8,127.2h7.6v4.2h0.1c2.5-3.5,5.9-4.9,10.1-4.9c7.3,0,10.5,5.2,10.5,12.1v19.5h-8v-16.5
			c0-3.8-0.1-8.9-5.2-8.9c-5.8,0-7.1,6.3-7.1,10.3v15.1h-8L824.8,127.2L824.8,127.2z"/>
		<path class="st1" d="M882.1,154.6L882.1,154.6c-2.5,3-5.8,4.2-9.6,4.2c-9.5,0-13-7.8-13-16.3s3.5-16.1,13-16.1
			c4,0,6.8,1.4,9.2,4.3h0.1v-17.6h8v45H882L882.1,154.6L882.1,154.6z M874.7,152.6c5.3,0,7.1-5.6,7.1-10c0-4.3-2-9.8-7.2-9.8
			s-6.7,5.7-6.7,9.8C867.9,146.8,869.4,152.6,874.7,152.6z"/>
		<path class="st1" d="M487.3,180.2h6.9l10.6,20.9h0.1v-20.9h5.4v27.9h-6.8l-10.7-20.9h-0.1v20.9h-5.4V180.2z"/>
		<path class="st1" d="M516.5,180.2h5.6v11.3h11.2v-11.3h5.6v27.9h-5.6v-12.2h-11.2v12.2h-5.6V180.2z"/>
		<path class="st1" d="M560.3,185.3c-1.8-0.8-3.7-1.2-5.7-1.2c-1.9,0-4.4,0.8-4.4,3.9c0,4.8,12.2,2.8,12.2,12.2
			c0,6.1-4.8,8.4-10.5,8.4c-3,0-4.4-0.4-7.2-1.1l0.5-5c1.9,1,4.1,1.7,6.3,1.7c2.1,0,5-1.1,5-3.6c0-5.3-12.2-3.1-12.2-12.4
			c0-6.2,4.8-8.5,9.8-8.5c2.4,0,4.6,0.3,6.7,1L560.3,185.3z"/>
		<path class="st1" d="M578.7,180.2h15.5v4.4h-9.9v6.9h9.4v4.4h-9.4v12.2h-5.6V180.2z"/>
		<path class="st1" d="M607.7,187.1c6.1,0,10.8,4.1,10.8,10.9c0,5.9-4,10.6-10.8,10.6s-10.8-4.7-10.8-10.6
			C596.9,191.2,601.6,187.1,607.7,187.1z M607.7,204.4c4.1,0,5.2-3.7,5.2-7.1c0-3.2-1.7-6.1-5.2-6.1s-5.2,3-5.2,6.1
			C602.5,200.7,603.6,204.4,607.7,204.4z"/>
		<path class="st1" d="M641.6,208.1h-5.1v-2.8h-0.1c-1.6,2-4,3.3-6.8,3.3c-4.9,0-7-3.4-7-8.1v-13h5.4v11c0,2.5,0,5.9,3.5,5.9
			c3.9,0,4.7-4.2,4.7-6.8v-10.1h5.4L641.6,208.1L641.6,208.1z"/>
		<path class="st1" d="M647.1,187.5h5.1v2.8h0.1c1.7-2.4,4-3.3,6.8-3.3c4.9,0,7,3.4,7,8.1v13h-5.4v-11c0-2.5,0-5.9-3.5-5.9
			c-3.9,0-4.7,4.2-4.7,6.8v10.1h-5.4L647.1,187.5L647.1,187.5z"/>
		<path class="st1" d="M685.3,205.8L685.3,205.8c-1.7,2-3.9,2.8-6.4,2.8c-6.3,0-8.6-5.2-8.6-10.8c0-5.7,2.3-10.7,8.6-10.7
			c2.7,0,4.6,0.9,6.2,2.9h0.1v-11.9h5.4v30h-5.2L685.3,205.8L685.3,205.8z M680.3,204.4c3.6,0,4.7-3.8,4.7-6.7s-1.4-6.6-4.8-6.6
			c-3.5,0-4.4,3.8-4.4,6.6C675.8,200.6,676.8,204.4,680.3,204.4z"/>
		<path class="st1" d="M696.9,188.6c2.1-1,4.9-1.6,7.2-1.6c6.3,0,8.9,2.6,8.9,8.7v2.6c0,2.1,0,3.6,0.1,5.2c0,1.6,0.1,3,0.2,4.6h-4.7
			c-0.2-1.1-0.2-2.4-0.2-3.1h-0.1c-1.2,2.3-3.9,3.6-6.4,3.6c-3.6,0-7.2-2.2-7.2-6.1c0-3.1,1.5-4.9,3.5-5.9s4.7-1.2,6.9-1.2h3
			c0-3.3-1.5-4.4-4.6-4.4c-2.3,0-4.6,0.9-6.4,2.2L696.9,188.6z M703.2,204.7c1.6,0,2.9-0.7,3.8-1.8c0.9-1.2,1.1-2.6,1.1-4.2h-2.3
			c-2.4,0-6,0.4-6,3.6C699.8,203.9,701.3,204.7,703.2,204.7z"/>
		<path class="st1" d="M720,191.5h-4v-3.9h4v-4.1l5.4-1.7v5.8h4.8v3.9h-4.8v9.6c0,1.8,0.5,3.4,2.5,3.4c1,0,1.9-0.2,2.4-0.6l0.2,4.2
			c-1.1,0.3-2.4,0.5-4,0.5c-4.2,0-6.5-2.6-6.5-6.7L720,191.5L720,191.5z"/>
		<path class="st1" d="M733.9,178.7h5.4v5.1h-5.4V178.7z M733.9,187.5h5.4v20.6h-5.4V187.5z"/>
		<path class="st1" d="M754.3,187.1c6.1,0,10.8,4.1,10.8,10.9c0,5.9-4,10.6-10.8,10.6s-10.8-4.7-10.8-10.6
			C743.6,191.2,748.3,187.1,754.3,187.1z M754.3,204.4c4.1,0,5.2-3.7,5.2-7.1c0-3.2-1.7-6.1-5.2-6.1s-5.2,3-5.2,6.1
			C749.2,200.7,750.3,204.4,754.3,204.4z"/>
		<path class="st1" d="M769.3,187.5h5.1v2.8h0.1c1.7-2.4,4-3.3,6.8-3.3c4.9,0,7,3.4,7,8.1v13h-5.4v-11c0-2.5,0-5.9-3.5-5.9
			c-3.9,0-4.7,4.2-4.7,6.8v10.1h-5.4L769.3,187.5L769.3,187.5z"/>
		<path class="st1" d="M810.5,184.6h-8v-4.4h21.6v4.4h-8v23.5h-5.6V184.6z"/>
		<path class="st1" d="M823.6,187.5h4.8v4.7h0.1c0.2-1.9,2.4-5.2,5.6-5.2c0.5,0,1.1,0,1.6,0.2v5.4c-0.5-0.3-1.4-0.4-2.4-0.4
			c-4.4,0-4.4,5.4-4.4,8.4v7.6h-5.4v-20.7H823.6z"/>
		<path class="st1" d="M857.9,208.1h-5.1v-2.8h-0.1c-1.6,2-4,3.3-6.8,3.3c-4.9,0-7-3.4-7-8.1v-13h5.4v11c0,2.5,0,5.9,3.5,5.9
			c3.9,0,4.7-4.2,4.7-6.8v-10.1h5.4L857.9,208.1L857.9,208.1z"/>
		<path class="st1" d="M875.7,191.9c-1.6-0.6-2.8-0.9-4.8-0.9c-1.4,0-3.2,0.5-3.2,2.3c0,3.3,9.3,1.2,9.3,8.6c0,4.8-4.3,6.7-8.6,6.7
			c-2,0-4.1-0.4-6.1-0.9l0.3-4.4c1.7,0.8,3.4,1.4,5.3,1.4c1.4,0,3.5-0.5,3.5-2.5c0-4-9.3-1.3-9.3-8.7c0-4.4,3.9-6.4,8.1-6.4
			c2.5,0,4.2,0.4,5.8,0.8L875.7,191.9z"/>
		<path class="st1" d="M883,191.5h-4v-3.9h4v-4.1l5.4-1.7v5.8h4.8v3.9h-4.8v9.6c0,1.8,0.5,3.4,2.5,3.4c1,0,1.9-0.2,2.4-0.6l0.2,4.2
			c-1.1,0.3-2.4,0.5-4,0.5c-4.2,0-6.5-2.6-6.5-6.7L883,191.5L883,191.5z"/>
	</g>
</g>
</svg>
