<svg xmlns="http://www.w3.org/2000/svg" width="239.133" height="91.226" viewBox="0 0 239.133 91.226">
  <defs>
    <style>
      .cls-1 {
        fill: #fff;
      }
    </style>
  </defs>
  <g id="Group_792" data-name="Group 792" transform="translate(-294.679 -407.793)">
    <g id="Group_791" data-name="Group 791" transform="translate(294.679 407.793)">
      <path id="Path_6075" data-name="Path 6075" class="cls-1" d="M384.659,456.892a7.294,7.294,0,0,1-4.7,1.811,27.385,27.385,0,0,1-.882,2.951,25.922,25.922,0,0,1-1.827,3.629,5.186,5.186,0,0,1-4.978,2.52,5.741,5.741,0,0,1-5.179-3.51,13.263,13.263,0,0,1,1-12.694,12.931,12.931,0,0,1,3-2.916c.927-.737,1.168-.96.728-1.991-.243-.57-.33-1.018.205-1.4a1.483,1.483,0,0,1,1.81-.151,8.881,8.881,0,0,1,3.749,4.581c.443,1.286.787,2.6,1.2,3.9.623,1.982,2.5,2.515,3.964,1.054a10.678,10.678,0,0,0,3.086-5.445c1.761-8.09,3.713-16.139,5.6-24.2a13.679,13.679,0,0,1,.487-1.52c.483-1.334.994-1.759,1.791-1.516.813.248,1.015.947.69,2.245-.547,2.179-1.139,4.349-1.6,6.546-1.324,6.3-2.592,12.6-3.754,19.042a7.435,7.435,0,0,1,4.347-2c2.024-.088,2.912,1.2,3.681,3.126.19-.591.288-.84.351-1.1q3.2-13.191,6.4-26.382c.179-.734.268-1.533,1.1-1.911,1.078-.488,1.815-.117,1.748,1.043a26.982,26.982,0,0,1-.553,4.031c-1.363,6.421-2.739,12.84-4.183,19.243-.506,2.241-1.221,4.435-1.933,6.982a23.788,23.788,0,0,1,2.026-2.148,8.438,8.438,0,0,1,2.372-1.49,1.865,1.865,0,0,1,2.646,1.731,9.253,9.253,0,0,0,.43,2.449,7.03,7.03,0,0,0,.225-.871q.377-2.893.725-5.789a1.551,1.551,0,0,1,1.517-1.464,1.3,1.3,0,0,1,1.489,1.475c-.055,1.892-.151,3.785-.13,5.676.019,1.65.875,2.309,2.427,1.759,2.438-.864,4.695-2.094,5.8-4.615.879-2,1.6-4.065,2.369-6.107.189-.5.277-1.034.488-1.519a1.487,1.487,0,0,1,1.829-1.01c.8.194,1.148.743.878,1.823-.5,2.007-1.124,3.984-1.693,5.975q-3.2,11.176-6.384,22.354a9.245,9.245,0,0,0-.156,1.037c2.56,0,5.027.015,7.494-.008.868-.008,1.168-.7,1.426-1.379,1.024-2.712,2.05-5.422,3.062-8.139.557-1.5,1.067-3.011,1.634-4.5a3.3,3.3,0,0,0-.028-2.73c-.681-1.495-.493-2.014.969-2.9a3.037,3.037,0,0,0,1.452-2.1q2.792-12.464,5.6-24.925c.207-.922.243-1.893.535-2.784a39.257,39.257,0,0,1,1.635-4.082,1.132,1.132,0,0,1,.956-.534c.271.078.524.592.582.948a4.2,4.2,0,0,1-.107,1.4c-1.18,6.274-2.326,12.556-3.58,18.815-.6,3.012-1.416,5.983-2.125,8.974-.092.387-.132.787-.245,1.488a9.9,9.9,0,0,0,1.368-.677,30.374,30.374,0,0,0,6.913-7.56,39.228,39.228,0,0,0,6.459-15.635,17.2,17.2,0,0,0-1.6-11.23,7.114,7.114,0,0,0-9.731-3.021,12.19,12.19,0,0,0-6.56,10.484c-.126,1.686-.116,1.686-1.085,2.546a6.032,6.032,0,0,1-1.4-4.769c.9-5.062,3.365-9.07,8.331-11.108,6.05-2.483,11.953.25,14.029,6.531a20.347,20.347,0,0,1,.809,8.044,41,41,0,0,1-2.324,10.895,36.78,36.78,0,0,1-12.64,17.414c-.993.741-2.1,1.331-3.134,2.015-1.392.919-1.648,1.888-.7,3.271,1.675,2.436,3.427,4.819,5.172,7.206,1.221,1.67,2.523,3.283,3.711,4.977a1.968,1.968,0,0,0,1.927.962c2.3-.172,4.6-.307,6.891-.486,2.177-.169,4.35-.387,6.526-.564q4.234-.342,8.472-.65c2-.147,4.006-.3,6.011-.4,3.008-.154,6.023-.2,9.025-.418,3.293-.244,6.575-.644,9.862-.966,1.411-.138,2.822-.289,4.236-.367,2.773-.153,5.549-.238,8.322-.392,3.714-.207,7.424-.467,11.137-.679,2.537-.145,5.076-.25,7.614-.369,2.6-.122,5.194-.247,7.792-.355a8.968,8.968,0,0,1,2.245.156,9.165,9.165,0,0,1-4.3,1.211q-5.541.612-11.1,1.025c-1.708.13-3.432.1-5.147.076a77.99,77.99,0,0,0-10.58.819c-3.514.421-7.052.641-10.577.962-.939.085-1.871.256-2.811.322-3.521.247-7.046.46-10.568.7-5.005.341-10.01.7-15.015,1.044-3.71.254-7.422.5-11.133.746-.294.02-.586.1-.879.1-1.339.013-2.679.008-4.018.01H446.06a6.2,6.2,0,0,0,.837,1.183c2.219,1.761,4.4,3.588,6.723,5.2a8.294,8.294,0,0,0,5.413,1.371c1.728-.127,2.255-.509,2.693-2.184a2.273,2.273,0,0,1,1.42-1.64,3.848,3.848,0,0,1-.337,5.515,6.25,6.25,0,0,1-3.7,1.528c-4.445.411-7.884-1.67-11.066-4.359-1.8-1.526-3.505-3.177-5.22-4.806a2.68,2.68,0,0,0-2.039-.721c-3.958-.066-7.8,1.086-11.755.979a2.114,2.114,0,0,0-2.262,1.589,33.079,33.079,0,0,1-1.448,3.238,4.021,4.021,0,0,1-.765,1.177,1.039,1.039,0,0,1-1.829-.414,9.841,9.841,0,0,1-.23-2.773,10.7,10.7,0,0,1,.408-1.948,16.131,16.131,0,0,0-6.133.219c-.854.193-1.011.908-1.194,1.6q-1.458,5.489-2.91,10.979c-.395,1.487-.814,2.967-1.192,4.458a2.184,2.184,0,0,0,.273,2.183,1.168,1.168,0,0,1,.218.981,26.754,26.754,0,0,1-1.592,3.527,1.454,1.454,0,0,1-1.287.564,1.916,1.916,0,0,1-.95-1.334,18.035,18.035,0,0,1,.145-4.763c1.136-5.014,2.47-9.984,3.73-14.97.214-.847.442-1.69.688-2.631a4.821,4.821,0,0,0-1.153-.249c-2.117.146-4.232.332-6.348.5-3.565.286-7.133.535-10.693.862-4.107.377-8.206.842-12.312,1.227-1.747.163-3.51.157-5.254.345-1.157.124-2.284.525-3.44.677-1.988.26-3.989.422-5.984.624a7.279,7.279,0,0,0-5.1,2.322,22.8,22.8,0,0,1-14.389,7.329,29.753,29.753,0,0,1-11.429-.62,18.2,18.2,0,0,1-5.954-2.685,2.578,2.578,0,0,0-2.3-.516,8.952,8.952,0,0,1-2.595-.212,6.289,6.289,0,0,1-4.271.98c-.276-.045-.638.232-.916.424a2.646,2.646,0,0,1-2.98.3,2.392,2.392,0,0,0-2.185-.011,21.512,21.512,0,0,1-3.434.8c-.68.157-1.349.362-2.022.547-.17.047-.353.174-.5.141-2.265-.493-4.239.8-6.385,1.024-1.05.11-2.093.312-3.145.388a7.235,7.235,0,0,0-4.056,1c-.179.131-.537.018-1.183.018a10.782,10.782,0,0,1,.917-.88,1.5,1.5,0,0,1,.512-.128c3.142-.76,6.271-1.579,9.429-2.268,5.023-1.1,10.064-2.116,15.1-3.149,1.619-.333,3.252-.594,4.874-.916.569-.113,1.121-.307,1.807-.5a7.1,7.1,0,0,1-.839-1.676,12.83,12.83,0,0,1-.29-3.288,1.368,1.368,0,0,1,1.69-1.171c.852.226.844.85.7,1.55-.389,1.846.647,3.168,2.3,3.941a2.071,2.071,0,0,0,1.18.2c2.484-.477,4.948-1.063,7.438-1.506s5.03-.7,7.525-1.155c2.619-.48,2.283-.363,2.809-2.495,1.924-7.807,3.79-15.628,5.753-23.425a2.522,2.522,0,0,0-1.019-2.908,9.731,9.731,0,0,0-6.154-2.4,7.076,7.076,0,0,1-2.262-.34,1.006,1.006,0,0,1-.192-1.9,3.884,3.884,0,0,1,1.307-.5,3.555,3.555,0,0,1,1.236-.052c2.99.414,5.374-1.008,7.754-2.488a2.094,2.094,0,0,0,1.064-1.72c.343-3.7.8-7.4,1.04-11.112.192-3,.03-6.022.217-9.022a6.213,6.213,0,0,1,1.546-4.206c.319.48.647.767.708,1.1a21.075,21.075,0,0,1,.354,2.986c.061,1.655,0,3.315.045,4.972a99.292,99.292,0,0,1-.864,12.905c-.034.333,0,.674,0,1.279a10.51,10.51,0,0,0,1.45-.9,40.519,40.519,0,0,0,10.04-13.828,11.808,11.808,0,0,0,.26-8.52c-1.525-4.718-6.153-6.473-10.585-4.233-2.595,1.311-3.867,3.542-4.738,6.134-.193.573-.412,1.136-.668,1.837a2.086,2.086,0,0,1-1.061-2.438,10.216,10.216,0,0,1,7.025-8.611c6.778-2.547,11.311,1.326,13.031,6.892,1.385,4.484.331,8.663-1.854,12.629A44.512,44.512,0,0,1,361.07,443.1a4.272,4.272,0,0,0-1.871,3.054c-.119,1.116-.27,2.228-.434,3.338a2.915,2.915,0,0,0,.863,2.416c3.831,4.438,5.613,9.806,6.906,15.38a14.346,14.346,0,0,1-.487,8.386c-.141.381-.215.788-.385,1.427.706-.117,1.252-.233,1.8-.293,2.521-.276,5.046-.525,7.567-.8,4.865-.536,9.727-1.109,14.6-1.62,2.936-.308,5.878-.578,8.823-.772,4.538-.3,9.081-.515,13.622-.774,1.276-.073,1.4-.167,1.835-1.716,1.041-3.7,2.049-7.413,3.08-11.117a29.364,29.364,0,0,0,1.115-5.056c-.513.367-1.014.751-1.54,1.1a16.888,16.888,0,0,1-2.257,1.394,4.651,4.651,0,0,1-5.7-1.2c-1.414,1.955-2.729,3.837-4.111,5.669a8.12,8.12,0,0,1-4.866,3.326,5.943,5.943,0,0,1-3.287-.4,1.4,1.4,0,0,1-1.042-1.644c.15-.9.81-1.034,1.6-1.01a9.749,9.749,0,0,0,2.29-.1,3.309,3.309,0,0,0,1.731-.837c2.075-2.344,3.672-4.937,3.587-8.236a3.254,3.254,0,0,0-.291-.735,16.821,16.821,0,0,0-1.548,1.444q-2.434,2.934-4.8,5.929a2.816,2.816,0,0,1-1.857,1.209,2.6,2.6,0,0,0-1.3,1.036,8.91,8.91,0,0,1-5.807,3.447,8.045,8.045,0,0,1-7.961-3.242c-.918-1.165-.676-2.231.516-2.517a2.169,2.169,0,0,1,1.293.259,9.158,9.158,0,0,1,1.371,1.059l.518-4.03.1-.082Zm-32.053,21.474a7.9,7.9,0,0,0,1.5.168c2.159-.245,4.337-.419,6.456-.865a3.7,3.7,0,0,0,2-1.574,9.593,9.593,0,0,0,1.354-6.97,40.3,40.3,0,0,0-3.8-11.2c-.528-1.1-1.156-2.157-1.738-3.234l-.356.05Zm19.856-27.358c-3.847,2.725-4.339,6.923-3.545,10.575.414,1.9,1.921,2.66,3.79,2.892a3.19,3.19,0,0,0,3.407-1.984,24.611,24.611,0,0,0,1.173-3.486,1.689,1.689,0,0,0-.865-2.21,8.438,8.438,0,0,1-3.521-4.718C372.8,451.754,372.643,451.446,372.461,451.008Zm67.606,19.431L432.8,459.9l-4.36,11.8Zm-81.831,10.275a16.647,16.647,0,0,0-3.1.033c-1.738.363-3.748.47-4.124,2.861a1.052,1.052,0,0,1-.271.452,1.031,1.031,0,0,1-1.9-.348,15.993,15.993,0,0,1-.353-1.741,7.218,7.218,0,0,0-2.075.13c-.825.308-1.453.381-1.859-.562-2.9,1.876-6.246,1.56-9.59,2.413C342.9,487.957,353.762,485.24,358.237,480.714Zm28.19-18.985c4.7.608,9.117-4.786,7.871-9.558-.487-1.866-1.519-2.185-2.864-.84a15.023,15.023,0,0,0-3.3,5.615C387.562,458.493,387.024,460.051,386.427,461.729ZM356.539,446.58l-.351-.252-1.545,1.039,1.59.889Z" transform="translate(-294.679 -407.793)"/>
      <path id="Path_6076" data-name="Path 6076" class="cls-1" d="M757.422,477.611a6.79,6.79,0,0,0-.841.635,8.89,8.89,0,0,1-7.641,2.5,4.933,4.933,0,0,1-3.158-1.453c-1.118-1.146-1.089-1.772.189-2.719,2.753-2.04,5.519-4.064,8.264-6.116.946-.707,1.884-1.433,2.757-2.226a2.736,2.736,0,0,0-.29-4.028,1.379,1.379,0,0,0-1.261.084,25.553,25.553,0,0,0-1.864,1.876,34.507,34.507,0,0,1-3.111,2.854,1.9,1.9,0,0,1-1.752.174,2.157,2.157,0,0,1-.494-1.708,15.76,15.76,0,0,1,.671-2.373q3.015-11.674,6.005-23.355c.6-2.346,1.128-4.711,1.691-7.066a2.22,2.22,0,0,1,.248-.839c.2-.249.607-.593.794-.527a1.823,1.823,0,0,1,.777.8,1.147,1.147,0,0,1,0,.693c-.392,2.325-.7,4.668-1.211,6.967-1.5,6.81-3.079,13.6-4.621,20.4a4.172,4.172,0,0,0,0,.7c1.632-.791,2.866-2.332,4.865-1.732,1.907.573,2.739,1.917,3.039,4,.823-.6,1.514-1.1,2.2-1.614,2.505-1.877,4.955-3.833,7.533-5.6a3.634,3.634,0,0,0,1.713-3.072,44.252,44.252,0,0,1,.446-4.93,6.6,6.6,0,0,1,5.05-5.77.59.59,0,0,0,.171-.046,3.709,3.709,0,0,1,3.813-.535,7.566,7.566,0,0,1,3.848,3.512,8.128,8.128,0,0,1,.3,6.874c-1.062,2.692-3.41,3.7-6.487,3.61a14.925,14.925,0,0,1-2.1-.321c-1.7-.3-2.764.482-2.849,2.15-.123,2.419-.159,4.843-.318,7.259-.217,3.3-.418,6.6-.826,9.875a9.05,9.05,0,0,1-1.355,3.61c-1.487,2.336-3.845,2.842-6.4,2.349a15.726,15.726,0,0,1-6.335-2.645c-.762-.553-1.54-1.154-1.471-2.272l.087-.08Zm.624-.878c1.344-.612,2.282-.044,3.207.685a10.078,10.078,0,0,0,5.078,1.9,2.717,2.717,0,0,0,3.117-1.487,9.549,9.549,0,0,0,1.059-2.965c.33-3.225.516-6.466.689-9.7.084-1.572.015-3.152.015-4.749a1.011,1.011,0,0,0-.406.116c-3.183,2.442-6.373,4.876-9.516,7.367a2.478,2.478,0,0,0-.878,1.472A23.339,23.339,0,0,1,758.046,476.734Zm21.638-22.1c2.8-.215,3.973-1.117,3.839-3.084a9.505,9.505,0,0,0-1.113-3.654,2.968,2.968,0,0,0-3.661-1.389c-2.341.6-3.716,2.591-3.771,5.5a10.3,10.3,0,0,1,5.1-2.264,1.872,1.872,0,0,1,2.12.89,2.151,2.151,0,0,1-.605,2.412C781.089,453.526,780.526,453.942,779.684,454.638Zm-29.478,22.314c2.6,1.153,5.7-1.237,6.513-5.117Zm27.447-24.172.071.216c.11,0,.271.045.321-.01a1.876,1.876,0,0,0,.229-.438Z" transform="translate(-585.044 -424.251)"/>
      <path id="Path_6077" data-name="Path 6077" class="cls-1" d="M843.9,522.6c-1.647.318-3.022.6-4.4.844a1.361,1.361,0,0,0-1.184,1.137,13.011,13.011,0,0,1-4.094,6.307c-.13.121-.253.251-.391.36-3.608,2.852-6.921,1.516-7.789-2.529-.871-4.062-.259-8.049,2.97-11.14a8.071,8.071,0,0,1,2.127-1.153c.257-.124.586-.094.853-.205.574-.24,1.267-.878,1.664-.722a7.914,7.914,0,0,1,2.608,1.738,6.511,6.511,0,0,1,1.352,2.269,1.525,1.525,0,0,0,1.9,1.139,34.741,34.741,0,0,0,3.551-1c.894-.3,1.721-.818,2.627-1.051,1.277-.328,1.971.289,1.814,1.6a29.684,29.684,0,0,1-.773,3.23c.674-.393,1.117-.611,1.516-.891a5.638,5.638,0,0,1,6.8-.15c1.883,1.221,3.729,2.505,5.538,3.833a3.641,3.641,0,0,0,2.246.878,2.593,2.593,0,0,1,1.3.431.986.986,0,0,1,.26,1.533,2.882,2.882,0,0,1-3.31,1.025,10.548,10.548,0,0,1-1.863-1.015c-1.846-1.174-3.655-2.407-5.517-3.555-2.322-1.432-3.541-1.273-5.525.634-.9.861-1.76,1.755-2.645,2.628a6.159,6.159,0,0,1-.92.83c-1.064.687-2.077.237-2.13-1.031a11.894,11.894,0,0,1,.352-2.618,12.987,12.987,0,0,1,.451-1.531C843.447,523.92,843.622,523.421,843.9,522.6Zm-8.306,1.391c-2.539-.085-4.513-1.071-5.057-4a8.221,8.221,0,0,0-2.115,4.489,11.015,11.015,0,0,0,.051,3.5,1.717,1.717,0,0,0,2.226,1.473A6.817,6.817,0,0,0,835.592,523.987Zm-1.211-5.254-.94,1.939,2.038.323Z" transform="translate(-637.082 -477.227)"/>
      <path id="Path_6078" data-name="Path 6078" class="cls-1" d="M724,527.619c-.028,3.072-.679,5.386-2.7,7.162a5.51,5.51,0,0,1-8.308-1.713c-1.585-3.382-.015-9.147,2.945-10.8a5.785,5.785,0,0,0,1.461-1.235c.729-.824,1.239-1.092,2.054-.4C721.775,522.6,724.443,524.431,724,527.619Zm-3.423-2.033c-1.51,1.133-1.51,1.133-2.924-.646a1.609,1.609,0,0,0-.344.042,1.038,1.038,0,0,0-.3.178c-1.8,1.437-1.981,3.477-1.714,5.479.24,1.795,2.534,2.6,4.086,1.638C721.374,531.043,722.018,527.722,720.578,525.586Z" transform="translate(-564.013 -480.303)"/>
      <path id="Path_6079" data-name="Path 6079" class="cls-1" d="M810.541,621.184c.451-2.046-.161-3.954.456-5.841.979.371.817,1.087.82,1.684.016,3.19.006,6.382.005,9.572,0,1.123.014,2.246-.007,3.368-.008.458-.092.916-.134,1.312-.968.159-1.828.249-2.662.447a4.769,4.769,0,0,1-5.609-2.887,6.876,6.876,0,0,1,.412-5.986,4.955,4.955,0,0,1,5.4-2.122C809.606,620.834,809.978,620.989,810.541,621.184Zm.169,5.13h.013c0-.647.018-1.294,0-1.94a2.623,2.623,0,0,0-3.81-2.435c-2.62,1-3,4.038-2.292,6.126.808,2.384,2.373,2.693,4.474,2.376a1.886,1.886,0,0,0,1.608-1.834C810.755,627.846,810.71,627.079,810.71,626.315Z" transform="translate(-622.403 -541.627)"/>
      <path id="Path_6080" data-name="Path 6080" class="cls-1" d="M398.417,446.009c.872.373,1.707.8,2.586,1.091a3.017,3.017,0,0,0,3.986-2.177,2.713,2.713,0,0,0-1.469-3.258c-.856-.519-1.8-.886-2.673-1.382a4.84,4.84,0,0,1-2.462-2.657,4.055,4.055,0,0,1,1.662-4.8,4.729,4.729,0,0,1,5.468.123.951.951,0,0,1,.279.438,2.481,2.481,0,0,1-.047.662c-.417-.08-.785-.161-1.156-.218a13.578,13.578,0,0,0-2.59-.353,2.569,2.569,0,0,0-2.379,2.051,2.5,2.5,0,0,0,1.081,2.929,20.859,20.859,0,0,0,2.983,1.522,4.718,4.718,0,0,1,2.656,5.387,4.221,4.221,0,0,1-4.446,3.259,10.752,10.752,0,0,1-3.141-1.073C398.166,447.288,397.948,446.726,398.417,446.009Z" transform="translate(-361.404 -423.414)"/>
      <path id="Path_6081" data-name="Path 6081" class="cls-1" d="M334.46,439.426c.806-.354,1.379-.657,1.986-.861,1.99-.67,4.079.3,4.325,2.371a75.663,75.663,0,0,1,.195,7.924c0,.072-.165.146-.316.271-.875-.219-.849-.976-.865-1.653-.033-1.361-.012-2.723-.016-4.084,0-.355,0-.711-.019-1.065-.114-1.855-.857-2.642-2.376-2.691-1.452-.047-3.154,1.289-3.044,2.811.115,1.59.025,3.194.02,4.793a3.444,3.444,0,0,1-.062,1.056,3.008,3.008,0,0,1-.579.77c-.223-.23-.538-.423-.645-.7a3.029,3.029,0,0,1-.072-1.053c0-4.143-.012-8.287.01-12.431,0-.54-.264-1.425.525-1.479,1.052-.072.626.89.667,1.46C334.3,436.332,334.366,437.8,334.46,439.426Z" transform="translate(-319.363 -424.307)"/>
      <path id="Path_6082" data-name="Path 6082" class="cls-1" d="M892.2,635.729c.024,3.495-2.387,6-5.53,5.743a5.411,5.411,0,0,1-4.7-4.216,5.825,5.825,0,0,1,2.183-6.142,5.066,5.066,0,0,1,5.964.124A5.359,5.359,0,0,1,892.2,635.729Zm-1.376.64c-.037-.747-.014-1.225-.091-1.687a3.631,3.631,0,0,0-3.306-3.153,3.4,3.4,0,0,0-3.905,2.566,8.04,8.04,0,0,0-.062,3.3,3.9,3.9,0,0,0,3.142,2.714A3.568,3.568,0,0,0,890.821,636.369Z" transform="translate(-673.27 -551.211)"/>
      <path id="Path_6083" data-name="Path 6083" class="cls-1" d="M726.85,635.785a5.275,5.275,0,1,1-10.53.026c.077-3.242,2.472-5.808,5.341-5.721A5.6,5.6,0,0,1,726.85,635.785Zm-1.4.07c-.007-2.53-1.639-4.4-3.846-4.414a4.312,4.312,0,0,0,.04,8.6C723.876,640.039,725.455,638.3,725.449,635.855Z" transform="translate(-566.565 -551.135)"/>
      <path id="Path_6084" data-name="Path 6084" class="cls-1" d="M367.109,456.12c-.157.478-.162.891-.365,1.048-3.011,2.318-7,1.265-8.057-2.483a7.091,7.091,0,0,1,.015-4.021,4.519,4.519,0,0,1,3.706-3.405,3.98,3.98,0,0,1,3.982,1.786,3.427,3.427,0,0,1,.545,3.4h-6.992a3.779,3.779,0,0,0,.809,3.364,2.933,2.933,0,0,0,2.962,1.236C364.789,456.853,365.831,456.476,367.109,456.12Zm-1.561-4.875c-.031-1.651-.887-2.623-2.255-2.729-1.749-.136-2.853.783-3.092,2.754A25.137,25.137,0,0,0,365.548,451.246Z" transform="translate(-335.77 -433.198)"/>
      <path id="Path_6085" data-name="Path 6085" class="cls-1" d="M703.538,615.939c-1.855,1.037-4.028.009-6.188.744,0,1.5-.012,3.011.006,4.525.008.673.456.908,1.064.914.946.009,1.893-.021,2.836.028a13.216,13.216,0,0,1,1.61.275l.021.377c-.273.136-.541.375-.819.389-1.062.052-2.128,0-3.19.044-1.316.05-1.512.244-1.541,1.6-.035,1.6.006,3.192-.021,4.787-.01.619.151,1.535-.707,1.571-1,.041-.667-.936-.671-1.5-.032-4.255-.028-8.511-.013-12.767.006-1.684.182-1.86,1.8-1.889,1.477-.026,2.956-.03,4.432.01a7.676,7.676,0,0,1,1.424.306Z" transform="translate(-553.39 -541.417)"/>
      <path id="Path_6086" data-name="Path 6086" class="cls-1" d="M839.983,640.235c-.328.9-.93,1.455-1.842.964a2.247,2.247,0,0,0-2.162.01,2.893,2.893,0,0,1-3.026-.17,3.143,3.143,0,0,1,.254-5.124,10.682,10.682,0,0,1,2.788-1.07c.705-.188,1.422-.192,1.492-1.161a2,2,0,0,0-1.224-2.135,4.68,4.68,0,0,0-2.023.083,10.084,10.084,0,0,0-1.71.672l-.228-.3c.117-.277.166-.721.363-.8a9.277,9.277,0,0,1,2.948-.962c1.931-.072,2.912,1,2.979,2.959.057,1.651.011,3.306.027,4.958C838.632,639.577,838.642,639.577,839.983,640.235Zm-2.572-4.117c-1.987-.393-3.732.384-4.287,1.788a1.8,1.8,0,0,0,1.633,2.49,2.8,2.8,0,0,0,2.748-2.8C837.506,637.133,837.447,636.67,837.41,636.118Z" transform="translate(-640.998 -551.236)"/>
      <path id="Path_6087" data-name="Path 6087" class="cls-1" d="M301.45,433.92c-1.064,0-1.935,0-2.806,0a12.986,12.986,0,0,1-1.77-.063c-.22-.032-.4-.337-.6-.518.232-.2.46-.568.7-.572,1.714-.027,3.43.026,5.145.039,1.762.013,3.524-.01,5.285.026a1.572,1.572,0,0,1,1.12.658,3.117,3.117,0,0,1-.959.407c-1,.056-2.012,0-3.017.035-1.366.043-1.552.206-1.58,1.542-.038,1.775-.012,3.551-.012,5.326q0,3.019,0,6.037a5.612,5.612,0,0,1-.056,1.237c-.056.241-.322.434-.494.649-.254-.2-.659-.365-.729-.619a6.048,6.048,0,0,1-.116-1.582c-.007-3.551,0-7.1-.007-10.653C301.548,435.34,301.5,434.815,301.45,433.92Z" transform="translate(-295.709 -423.892)"/>
      <path id="Path_6088" data-name="Path 6088" class="cls-1" d="M915.38,630.025l.754,1.286c.249-.105.407-.169.562-.239a11.113,11.113,0,0,1,1.91-.836,3.021,3.021,0,0,1,3.941,2.531,61.347,61.347,0,0,1,.365,6.868,8.464,8.464,0,0,1-.217,1.5c-1-.133-1.083-.731-1.1-1.321-.035-.944-.017-1.889-.022-2.833,0-.826,0-1.653-.016-2.479-.055-2.154-.858-3.113-2.555-3.078a3.237,3.237,0,0,0-3.122,3.177c-.032,1.593.01,3.188-.024,4.781-.011.543.224,1.216-.648,1.586a3.041,3.041,0,0,1-.418-.845C914.475,637.895,914.746,631.476,915.38,630.025Z" transform="translate(-694.459 -551.095)"/>
      <path id="Path_6089" data-name="Path 6089" class="cls-1" d="M757.11,641.522a2.217,2.217,0,0,0-2.854-.287,3.3,3.3,0,0,1-4.766-1.913,6.665,6.665,0,0,1-.437-2.065c-.065-1.654-.053-3.313-.012-4.968a8.731,8.731,0,0,1,.342-1.6c1.065.232,1,.881,1,1.449.019,1.6,0,3.194.018,4.792a6.5,6.5,0,0,0,.144,1.583,2.338,2.338,0,0,0,3.605,1.513,3.375,3.375,0,0,0,1.966-3.293c-.114-1.529-.042-3.075-.01-4.612a13.078,13.078,0,0,1,.3-1.728c.414.447.682.6.683.758C757.116,634.447,757.11,637.739,757.11,641.522Z" transform="translate(-587.643 -551.334)"/>
      <path id="Path_6090" data-name="Path 6090" class="cls-1" d="M784.763,641.1c-1-.012-1.027-.65-1.049-1.238-.032-.886-.011-1.773-.015-2.66,0-.946.019-1.893-.023-2.837-.083-1.869-.818-2.736-2.293-2.77a3.269,3.269,0,0,0-3.368,2.948c-.057,1.653,0,3.31-.028,4.965a16.51,16.51,0,0,1-.252,1.823c-.834-.955-.848-.955-.827-5.416a38.234,38.234,0,0,1,.157-5.539l1.265.995a19,19,0,0,1,2.441-.952,3.086,3.086,0,0,1,3.75,1.89,4.76,4.76,0,0,1,.49,1.693c.053,2.184.02,4.371,0,6.556C785.013,640.709,784.875,640.863,784.763,641.1Z" transform="translate(-605.619 -551.276)"/>
      <path id="Path_6091" data-name="Path 6091" class="cls-1" d="M854.227,625.967c.123-.18.182-.352.252-.356,1.421-.083,1.9-.881,1.818-2.223-.019-.317.3-.655.468-.983l.385.037a9.487,9.487,0,0,1,.186,1.431c-.017.991.318,1.571,1.409,1.585a3.52,3.52,0,0,1,1.035.355v.429l-2.268.487a14.246,14.246,0,0,0-.161,1.46c-.023,1.533-.015,3.065-.009,4.6.009,2.336.246,2.562,2.649,2.4-.044.327.027.757-.142.9a2.237,2.237,0,0,1-3.547-1.366,54.639,54.639,0,0,1-.193-5.986c.036-1.749.127-1.744-1.639-2.4C854.386,626.294,854.344,626.145,854.227,625.967Z" transform="translate(-655.492 -546.181)"/>
      <path id="Path_6092" data-name="Path 6092" class="cls-1" d="M443.138,448.628c-.6.26-.878.5-1.088.453a2.381,2.381,0,0,0-2.6.59,4.7,4.7,0,0,0-1.4,3.339c.032,1.3.022,2.6-.008,3.9-.011.487.167,1.106-.6,1.314-.116-.107-.347-.218-.349-.334q-.084-4.514-.113-9.029a1.453,1.453,0,0,1,.578-1.044l.812,1.484c1.061-.537,1.705-2.046,3.179-1.727C442.04,447.68,442.448,448.153,443.138,448.628Z" transform="translate(-386.441 -433.417)"/>
      <path id="Path_6093" data-name="Path 6093" class="cls-1" d="M427.494,453.8c0,1.355.034,2.712-.024,4.065-.015.343-.321.673-.494,1.009-.274-.317-.779-.629-.786-.953-.064-2.827-.059-5.656-.014-8.483.005-.311.4-.615.608-.923.234.348.649.685.669,1.044.078,1.41.032,2.826.032,4.241Z" transform="translate(-379.451 -434.051)"/>
      <path id="Path_6094" data-name="Path 6094" class="cls-1" d="M875.672,641.69c-.242-.282-.5-.442-.5-.606q-.043-4.754-.015-9.508c0-.174.241-.347.438-.612.219.249.482.408.484.57q.059,4.668.046,9.336C876.122,641.1,875.875,641.334,875.672,641.69Z" transform="translate(-668.98 -551.7)"/>
      <path id="Path_6095" data-name="Path 6095" class="cls-1" d="M875.451,617.494c-.732-.508-.543-1.131-.312-1.8C876.216,616.246,876.245,616.418,875.451,617.494Z" transform="translate(-668.844 -541.854)"/>
      <path id="Path_6096" data-name="Path 6096" class="cls-1" d="M427.246,435.1c-.725-.4-1.011-.842-.636-1.462a.76.76,0,0,1,.719-.174C427.873,433.916,427.752,434.435,427.246,435.1Z" transform="translate(-379.645 -424.322)"/>
    </g>
  </g>
</svg>
