<?xml version="1.0" encoding="utf-8"?>
<!-- Generator: Adobe Illustrator 23.0.2, SVG Export Plug-In . SVG Version: 6.00 Build 0)  -->
<svg version="1.1" xmlns="http://www.w3.org/2000/svg" xmlns:xlink="http://www.w3.org/1999/xlink" x="0px" y="0px"
	 viewBox="0 0 99.6 99.6" style="enable-background:new 0 0 99.6 99.6;" xml:space="preserve">
<style type="text/css">
	.st0{fill:#FFFFFF;}
	.st1{fill:#465379;}
	.st2{filter:url(#Adobe_OpacityMaskFilter);}
	.st3{fill-rule:evenodd;clip-rule:evenodd;fill:#FFFFFF;}
	.st4{mask:url(#b_1_);fill:#B4CA1D;}
	.st5{fill:#B4CA1D;}
</style>
<g id="Layer_3">
	<circle class="st0" cx="49.8" cy="49.8" r="49.8"/>
</g>
<g id="Layer_1">
	<g>
		<path class="st1" d="M19.8,46.2l-0.5,0l-0.9,0.1l-1.7,0h-1.4L15,46.7l0,0.7l0,1.2l0,0.3l0,0.9l-0.1,2l0,0.5l0,1l-0.1,0.4l0.1,1.1
			l0,0.5v0.5l0,1.3l-0.1,0.6v0.7l0.1,0.5l0,0.5l0,1.9l0.1,0.5l-0.1,0.6l0.1,0.5l-0.1,1.9l-0.1,0.6l0,0.5L15,66l-0.1,0.6l0.2,1.1v0.8
			l0.2,1.2l0.1,0.7l0.4,1.9l0.2,0.6l0.5,1.2L17,75l0.7,1.2l0.4,0.3l0.2,0.4l0.3,0.3l1.3,1.2l1.3,0.9l0.4,0.3l1.6,0.6l0.4,0.2
			l0.5,0.1l0.4,0.2L26,81h0.4l0.5,0.2h1.3l-0.1,0h0.6l0.4-0.1l0.5-0.1h0.8l0.9-0.1l0.4-0.2l0.4-0.1l0.4-0.1l1.3-0.5l0.4-0.2l0.4-0.1
			l1-0.6l0.4-0.3l0.4-0.2l0.3-0.3l0.3-0.4l0.6-0.5l0.9-1l0.2-0.4l0.6-0.8l0.5-0.6l0.5-1.1l0.1-0.4l0.2-0.4l0.6-2.1l0.2-1.1v-0.5
			l0.2-1.1l-0.1-0.5l0.2-0.9V66l-0.1-0.8l0-1l0-0.6l0.1-2.1l-0.1-0.3l0.1-0.9l0-2.1l-0.1-1l0-0.6l-0.1-0.4l0.1-1l0.1-0.6L41.8,53
			l-0.1-1.1l0.1-0.4L41.6,51l0-0.7l0-1.4l0-2l0-0.3l-0.2-0.2l-0.1-0.1l-0.4,0h-1.7l-0.4,0l-0.2,0.1l-0.7,0l-0.4-0.1l-0.4,0.1
			l-0.5-0.1l-1,0l-0.3,0.1l-0.3,0.2l0,1.2v1.4l0,2l0,0.5l0,0.5l-0.1,0.4l0,0.8l0,1.7l-0.1,0.8l0.1,0.7l-0.1,1.9l0.1,1.9v1.5l0.1,0.9
			l-0.1,0.5l0,0.4v1.1l-0.1,1.1l0.1,0.7l-0.1,0.5l0,0.8l0,0.5l0,0.5l-0.2,0.7l-0.7,1.9L33.8,72l-0.2,0.4l-0.3,0.3l-0.4,0.7l-0.7,0.4
			l-0.4,0.3l-0.3,0.2l-1.2,0.5l-1.2,0.3h-0.8l-0.5,0L27.6,75h-0.8l-1.5-0.6l-1.1-0.8L23.5,73l-0.3-0.4L23,72.4l-0.2-0.5l-0.3-0.3
			l-0.1-0.5l-0.3-0.4L22,70.1l-0.2-0.6L21.7,69l-0.2-0.5l0-1.5l0-0.5l0-0.9v-3.4l0-0.5l-0.1-0.6l0-1l0-1.9l0.1-0.9l0-2l-0.1-0.6
			v-1.4l0-1l0.1-1l0-1.4l0-0.9l-0.1-2.1l-0.1-0.3l-0.2-0.2l-0.5-0.2L19.8,46.2z M56.7,47.3l0,0.2l-0.1,0.4l0,0.6l0,0.5v1l0,1.9
			l0,0.4l0,0.7l0,0.7v1.7l0.1,0.6l0,0.3l0,0.9l0,0.6l0,0.3l0,0.6l0.1,0.5l-0.1,1.1l0.1,0.4l0,0.5v1.5l0.2-0.1l0.9,0.1l2-0.1l0.5-0.7
			l0.4-0.9l0.4-1.2l0.4-0.8l0.2-0.4l0.5-1.2l0.5-0.9l0.1-0.7l0.4-0.8l0.2-0.5l0.2-0.3l0.2-0.5l0.1-0.4l0.2-0.5l0.3-0.8l0.9-2.1
			l0.5-1.2l0.3-0.4l0.1-0.4l0.6-1.2l0.5-0.3h1.1l0.3,0l0.9-0.1l0.5,0l0.9,0l0.7,0.1l0.8,0h0.9l0.3,0.2l0.1,0.1l0.1,0.3l0,0.3
			l-0.3,0.7l-0.7,1.7L72,51.5L71.8,52L71,53.7l-0.4,0.9L70.4,55l-0.2,0.7l-0.3,0.6l-0.3,0.4l-0.3,0.9l-0.4,0.8L68.7,59l-0.3,0.7
			l-0.5,1.1l-0.4,0.8l-0.1,0.4l-0.3,0.6l-0.2,0.7l-0.4,0.7l-0.1,0.1l0.5,0.2l1.5,1l0.2,0.2l0.4,0.3l0.7,0.6l1.3,1.5l0.8,1.1l0.4,0.7
			l0.3,0.4l0.4,0.8l0.2,0.5l0.4,1l0.1,0.5l0.5,1l0.2,0.9l0.1,0.8l0.2,0.6l0.1,0.6l0,0.6l0.3,0.6l-0.1,0.6l0.2,1.1l-0.3,0.4l-0.6,0.3
			l-1-0.1l-0.4,0l-1,0l-1.9,0L68.6,80l-0.3-0.2l-0.1-0.4l0-1l-0.2-0.6v-0.6l-0.1-1.1l-0.4-1.3l0-0.4L67.1,74L67,73.5l-0.3-0.5
			l-0.1-0.4L66.2,72l-0.1-0.2L65,70.3L64.7,70l-1.4-0.9l-1.1-0.4l-0.2,0l-0.5-0.2l-0.4,0l-0.5-0.1l-1-0.1l-1,0l-1.9,0l0,0.6l0.1,1.6
			l0,1.4l-0.1,0.5l0.1,0.3l0,1.6l-0.1,0.5l0.1,1l-0.1,0.8l0.1,2.2l0.1,0.5l0,0.3l-0.1,0.2l-0.1,0.1L56.2,80l-0.6,0.1L54,80l-1.5,0
			H51L50.3,80l-0.2-0.2l-0.1-0.4l0-1.4l-0.1-1l0-0.6l0-0.3l0.1-0.5l0-0.3l0-1.2l0-0.8l0-0.5l0.1-0.5l-0.1-0.9l0-0.7l-0.1-0.8l0-0.5
			v-1.1l0-0.3l0-0.6l0-0.6l0-0.3l0.1-1.4l0-1.6L49.9,63v-0.5l0.1-0.5l-0.1-0.5l0.1-0.6l0-0.9l0-2l0-0.8l0-1.1l-0.1-0.3v-1.1l0-0.5
			l0-0.7v-1.1l0.1-0.5l0-0.6l0-1l0-2l0-1.4l0.1-0.4l0.3-0.3h0.5l0.4-0.1l0.8,0.1l0.6-0.1l1,0.1l0.9,0h1.5l0.3,0.1l0.2,0.2l0.1,0.4
			L56.7,47.3z M80.5,73.2l-0.8,0l-0.4,0l-0.4,0.1l-0.8,0.4L77.8,74l-0.5,0.7L77,75.6l-0.2,0.9l0,1.3l0.1,1l0.2,0.6l0.4,0.8l0.7,0.6
			l1,0.4l1,0l0.1,0.1l1.1-0.1l0.4-0.1l0.4-0.1l0.7-0.4l0.3-0.3l0.5-0.8l0.2-0.9V76l-0.3-1l-0.2-0.5L82.9,74l-0.5-0.4l-0.6-0.2
			l-0.3-0.2L80.5,73.2z M83.2,46.2l0.3,0.1l0.1,0.1l0.1,0.2l0.1,0.5l-0.1,0.6l0.1,0.3l0,2l0,0.6l0.1,0.3l0,2.2l0,1.4l-0.1,0.5l0,1.5
			l-0.1,0.5l0,1.4l-0.1,1l0,1l0,0.8v1.6l-0.1,1v1.2l0,0.2v0.6l0,0.9l0,1.1l-0.1,0.6l0,0.5l-0.1,0.5l0,0.9l-0.3,0.4l-0.2,0l-1.3,0
			l-1.2-0.1l-1,0l-0.2-0.1l-0.2-0.3l-0.1-0.3l0-1.5l-0.1-0.4l0-1L78.4,67l0.1-0.5L78.4,66l0-0.6L78.3,65l0-2.2L78.3,62l0-1l-0.1-0.6
			l0-1.9l-0.1-0.5l0-0.6l0-0.8l-0.1-0.6l0.1-0.5L77.9,55l0-0.3l-0.1-0.7l0.1-0.5l-0.1-0.3v-0.5l0.1-0.6v-0.5l-0.1-0.6l0-1.8l0.1-1.2
			L77.9,47l0.2-0.4l0.1-0.2l0.2-0.1l0.7,0l1.8,0l1.2,0h0.6l0.2,0L83.2,46.2z"/>
		<defs>
			<filter id="Adobe_OpacityMaskFilter" filterUnits="userSpaceOnUse" x="11.8" y="17.5" width="27.4" height="41.6">
				<feColorMatrix  type="matrix" values="1 0 0 0 0  0 1 0 0 0  0 0 1 0 0  0 0 0 1 0"/>
			</filter>
		</defs>
		<mask maskUnits="userSpaceOnUse" x="11.8" y="17.5" width="27.4" height="41.6" id="b_1_">
			<g class="st2">
				<path id="a_1_" class="st3" d="M11.8,38.3V17.5h27.4v41.6H11.8V38.3z"/>
			</g>
		</mask>
		<path class="st4" d="M28.1,32.6c-1,0.9-2.3,1.3-3.9,1.3c-1.5,0-2.7-0.4-3.7-1.3c-0.9-0.9-1.4-2.1-1.4-3.5v-0.3
			c0.1-1.3,0.6-2.4,1.6-3.2c1-0.9,2.2-1.3,3.5-1.3c1.5,0,2.8,0.5,3.8,1.4c1,0.9,1.5,2.1,1.5,3.5C29.6,30.6,29.1,31.7,28.1,32.6
			 M37.6,18.8c-1-0.8-2.3-1.2-3.8-1.2c-3.4,0-5.2,1.5-5.6,4.4L27,21.4c-1-0.3-2-0.4-2.8-0.4c-2.5,0-4.6,0.7-6.2,2.2
			c-1.7,1.5-2.5,3.3-2.5,5.6c0,1.6,0.4,2.9,1.2,4.1c-2.6,0.9-3.9,2.4-3.9,4.8c0,2.1,1.3,3.7,3.9,4.8l0,0c2.4,0.8,4.7,0.7,7.1,0.7
			c2.6,0,5.5-0.2,7.9,1.2c1.1,0.6,2,1.8,2.3,3.1c0.4,1.6,0.1,3.4-0.9,5c-1.7,2.8-7,3.6-9.5,3.6h-0.2c-1.7,0-3.5-0.1-5.2-0.7
			c-1.8-0.7-3.5-2.4-2.8-4.6c0.9-3,5.7-3,8.1-3c4.6,0,5.7,0.8,6,1.2c0.2,0.2,0.2,0.4,0.1,0.7c-0.1,0.4-0.6,0.9-1.6,1.2
			c-1.3,0.4-2.6,0.6-3.9,0.6c-0.2,0-0.4,0.2-0.4,0.5V54c0,0.3,0.2,0.5,0.5,0.5c0.8,0,2.5-0.2,4.6-0.8c1.9-0.5,3.2-1.7,3.7-3.3
			c0.4-1.2,0.2-2.6-0.6-3.7c-1.3-1.7-4-2.3-8.4-2.3c-3.4,0-5.1,0.3-6.6,0.8c-1.9,0.6-5.1,2.6-5.1,5.9c0,2.6,1.6,4.9,3.6,6.2
			c2.3,1.5,5.1,1.7,7.7,1.7l0.3,0h0.2c2.6,0,5.3-0.5,7.7-1.6c2.1-1,4.2-2.6,5.2-4.8c1.1-2.3,1-5.1-0.1-7.5c-1.3-2.8-4.1-4.1-6.9-4.6
			c-1.6-0.3-3.3-0.4-5-0.4c-1.7,0-3.4,0.2-5.2,0c-1.5-0.2-3.3-0.7-3.3-2.6c0-0.6,0.2-1,0.5-1.5c0.3-0.4,0.7-0.6,1.2-0.6
			c0.3,0,0.8,0.1,1.3,0.3c1.9,0.9,3.7,1.3,5.4,1.3c2.5,0,4.5-0.8,6.2-2.3c1.6-1.5,2.5-3.4,2.5-5.7c0-2.3-0.8-4.1-2.3-5.7
			c0.1-2.2,1-3.3,2.7-3.3c0.8,0,1.5,0.3,2,1c-0.7,0.6-1.1,1.2-1.1,1.7c0,0.5,0.2,1,0.6,1.4c0.4,0.4,0.9,0.6,1.4,0.6
			c0.7,0,1.3-0.3,1.8-0.9c0.5-0.6,0.8-1.3,0.8-2.1C39.2,20.7,38.7,19.6,37.6,18.8"/>
		<path class="st5" d="M61.7,44.8l0-0.5l0-0.5v-0.5l0-0.4v-1.1l0-0.7l0-1l0-0.3l0-0.3l0-0.2l0-0.7v-0.8l0.1-0.7l-0.1-1.2l0-1.2
			l0-0.3l0-0.3l0.1-0.2l0-0.5l0-0.3l0-0.2V32l0-0.3v-0.3l0-0.3l0-0.6l0.1-0.3v-0.6l-0.1-0.6l0-0.3l-0.2,0l-0.4,0l-0.2,0l-0.4,0
			l-0.3-0.1h-0.9l-0.5,0.1l-0.6-0.1h-0.3l-1.2,0l-0.2,0l-0.1-0.1l-0.1-0.2l0-0.1v-1.2l0-0.3l0-0.2l0-0.9l0.1-0.3l0.2-0.1l0.6,0h0.6
			l0.9,0l0.2,0l0.3,0l0.4,0.1l1,0h1.3l0.3,0l0.6,0l1.2,0l0.2,0l1.2,0l0.3,0l1.3,0.1l1.2,0l0.2-0.1l0.4,0l0.6,0l1,0l0.7,0l0.3,0
			l0.2,0.2l0.1,0.2l0,0.3l-0.1,0.6l0,0.4l0,0.2l0,0.4v0.3l0,0.2l-0.1,0.6l-0.1,0.1l-0.3,0l-0.8,0l-0.3,0l-0.4,0L69,28.9l-0.3-0.1
			l-0.6,0l-0.6,0h-1.2l-0.3,0l0,0.3l0,0.5l0,0.4l0.1,0.5l0,0.4l0,0.1l0,0.4v0.3l0,0.3l0,0.2v0.7l0,0.3L66,33.3l0,0.4v0.6l0.1,0.5
			l0,0.3l0,0.2L66,36l0.1,0.4L66,36.6l0,0.2l0.1,0.5l0,1.2l0,0.2l0,0.4l0,1.1L66,41l0,1.2l0.1,0.2L66,42.7v0.5l0.1,0.5L66,44.3
			l0,0.3v0.4l-0.1,0.2l-0.1,0.1l-0.1,0.1l-0.3,0h-0.5l-0.4,0l-0.3-0.1l-0.5,0.1l-0.6-0.1l-0.4,0l-0.2,0h-0.4l-0.3-0.1L61.8,45l0-0.1
			L61.7,44.8z M78.4,45.7L78,45.6h-0.6l-0.7-0.2l-0.5-0.1l-0.3-0.2l-0.2,0L75.4,45l-1-0.6l-0.1-0.1l-0.7-0.6l-0.4-0.4L73,42.9
			l-0.3-0.6L72.6,42l-0.1-0.3l-0.3-1.1l0-0.2l0-0.2l0-0.1l0.3-0.1l0.7,0l0.2,0l0.4,0H74l0.7,0l0.8,0l0.6,0l0.2,0.1l0,0.1l0.2,0.5
			l0.2,0.3l0.3,0.5l0.5,0.3l0.2,0.1l0.6,0.2l0.4,0.1h0.6L80,42l0.3-0.1l0.4-0.3l0.4-0.4l0.2-0.3l0.1-0.6V40l-0.1-0.7L81.1,39
			l-0.4-0.5l-0.4-0.3l-0.4-0.2l-0.6-0.4l-0.2-0.1l-0.4-0.2l-1.3-0.5l-1.1-0.5l-0.4-0.2L75.8,36l-0.5-0.2l-0.4-0.3l-1-0.8l-0.3-0.3
			l-0.3-0.4l-0.3-0.4l-0.3-0.3l-0.3-0.7l-0.1-0.5l-0.1-0.5l0-0.3l0-0.5l-0.1-0.3l0-0.3l0-0.2l0.3-0.9v-0.3l0.1-0.3l0.1-0.2l0.3-0.5
			l0.2-0.3l0.4-0.5l0.4-0.4l0.6-0.4l0.2-0.1l0.2-0.1l0.6-0.3l0.3-0.1l0.7-0.2l1.1-0.2l0.4,0l0.2,0.1l0.6-0.1l0.2,0l0.3,0l0.3,0.1
			l0.7,0.1l0.2,0.1l0.3,0l0.3,0.1l0.6,0.2l0.4,0.2l0.4,0.1l0.2,0.1l0.4,0.3l0.3,0.3l0.2,0.2l0.1,0.2l0.3,0.2l0.4,0.6l0.1,0.3
			l0.3,0.6l0,0.2l0.1,0.3l0.1,0.5l0,0.6l0,0.2l-0.2,0.2l-0.2,0.1l-0.6,0l-0.4-0.1l-0.5,0l-0.6,0l-1.2,0l-0.3,0l-0.1-0.1l-0.1-0.1
			l-0.1-0.2v-0.3l-0.1-0.2l-0.2-0.3L80.1,29l-0.4-0.3l-0.5-0.2l-0.8,0l-0.7,0.1l-0.2,0.1L77,29.2l-0.1,0.1l-0.3,0.5l-0.1,0.5
			l0.1,0.8l0.1,0.3l0.2,0.2l0.1,0.1l0.2,0.2l0.4,0.2l0.9,0.6l0.8,0.3l0.4,0.2l0.5,0.1l0.3,0.2l0.4,0.2l0.5,0.1l0.7,0.4l0.3,0.2
			l0.4,0.2l0.2,0.1l1,0.8l0.6,0.5l0.1,0.2l0.3,0.4l0.1,0.1l0.3,0.4l0.1,0.3l0.2,0.9V39l0.1,0.5l0,0.4v0.2l0,0.3v0.2l-0.1,0.6
			l-0.2,0.6l0,0.3l-0.2,0.4L85,42.7L84.9,43l-0.3,0.4l-0.2,0.2l-0.2,0.3l-0.6,0.5l-0.3,0.2L82.4,45l-0.3,0.1l-0.5,0.2l-0.7,0.1
			l-0.3,0.1l-0.2,0l-0.5,0.1l-0.3,0l-0.4,0.1h-0.4L78.4,45.7z"/>
		<path class="st1" d="M20.3,46.2l-0.4,0.1l-0.8,0.1l-1.5-0.1h-1.2l-0.4,0.4l0,0.8l0,1.3l0,0.4l0,1l0,0.9h6l0-0.9l0-1L21.8,47
			l-0.1-0.4l-0.1-0.2l-0.4-0.3L20.3,46.2z"/>
		<path class="st5" d="M47.7,46.1l0.5,0l0.2-0.1l0.3,0l0.3-0.1l0.8-0.3l0.3-0.1l0.2-0.1l0.6-0.3l0.3-0.2l0.3-0.1l0.2-0.2l0.2-0.2
			l0.4-0.3l0.6-0.6l0.1-0.2l0.4-0.5l0.3-0.4l0.3-0.6l0.1-0.2l0.1-0.3l0.4-1.2l0.1-0.6v-0.3l0.1-0.6L54.7,38l0.1-0.5v-0.4l-0.1-0.5
			l0-0.6l0-0.3l0-1.3l0-0.2l0-0.5l0-1.2l0-0.6l0-0.3l0-0.2l0.1-0.6l0-0.4l0-1.1l0-0.7l0-0.2l-0.1-0.3l0-0.4l0-0.8l0-1.2l0-0.2
			l-0.1-0.1l-0.1-0.1l-0.2,0h-1l-0.3,0l-0.2,0l-0.4,0l-0.2,0l-0.2,0l-0.3,0l-0.6,0l-0.2,0.1l-0.2,0.1l0,0.7V27l0,1.2l0,0.3l0,0.3
			l0,0.2l0,0.5l0,1L50.6,31l0.1,0.4l-0.1,1.1l0,1.1v0.9l0,0.5l-0.1,0.3l0,0.2v0.7l0,0.7l0,0.4l-0.1,0.3l0,0.5l0,0.3l0,0.3l-0.1,0.4
			L50,40.4l-0.2,0.3l-0.1,0.3l-0.2,0.2l-0.3,0.4l-0.5,0.3l-0.2,0.2l-0.2,0.1l-0.7,0.3l-0.7,0.2h-0.5l-0.3,0l-0.1,0h-0.5l-1-0.4
			l-0.7-0.5l-0.4-0.4L43.1,41L43,40.9l-0.1-0.3l-0.2-0.2l-0.1-0.3l-0.2-0.2l-0.1-0.4l-0.1-0.3l0-0.3L42,38.6l0-0.9l0-0.3l0-0.5v-2
			l0-0.3L42,34.1l0-0.6l0-1.1l0-0.5l0-1.2L42,30.3v-0.8l0-0.6l0.1-0.6l0-0.9l0-0.5l0-1.2l0-0.2l-0.1-0.1l-0.3-0.1l-0.6,0l-0.3,0
			l-0.6,0l-1.1,0h-0.9l-0.3,0.2l0,0.4l0,0.7l0,0.2l0,0.5l0,1.2l0,0.3l0,0.6l-0.1,0.3l0.1,0.7l0,0.3V31l0,0.8l0,0.3v0.4l0.1,0.3
			l0,0.3l0,1.1l0.1,0.3l-0.1,0.3l0.1,0.3l0,1.1l-0.1,0.3l0,0.3l0.1,0.2l-0.1,0.4l0.1,0.7v0.5l0.1,0.7l0.1,0.4l0.3,1.1l0.2,0.3
			l0.3,0.7l0.3,0.6l0.5,0.7l0.2,0.2l0.1,0.2l0.2,0.2l0.8,0.7l0.8,0.5l0.3,0.2l1,0.4l0.2,0.1l0.3,0.1l0.3,0.1l1,0.2h0.3l0.3,0.1
			l0.1,0l0.4,0l0.4-0.1l0.3,0.1l0.4,0l0.3-0.1L47.7,46.1z"/>
	</g>
</g>
</svg>
