<svg xmlns="http://www.w3.org/2000/svg" width="238.98" height="78.644" viewBox="0 0 238.98 78.644">
  <defs>
    <style>
      .cls-1 {
        fill: #fff;
      }
    </style>
  </defs>
  <g id="Group_797" data-name="Group 797" transform="translate(-517.75 -329.75)">
    <g id="Group_796" data-name="Group 796" transform="translate(517.75 329.75)">
      <path id="Path_6097" data-name="Path 6097" class="cls-1" d="M584.811,329.75c-.03,8.215-.024,16.431-.1,24.646-.117,12.694-3.457,24.386-11.088,34.673a65.333,65.333,0,0,1-20.842,18.351c-.52.29-1,.648-1.5.974h-.61a24.159,24.159,0,0,0-2.311-1.758,64.762,64.762,0,0,1-18.379-16.194c-6.793-8.775-10.948-18.606-11.692-29.773a7.005,7.005,0,0,0-.54-1.656V329.75Zm-.671,25.519c-.019-8.259.048-16.222-.046-24.129-3.9-.575-62.9-.426-65.076.12v24.008Zm-12.2,18.473c-4.553,2.9-9.018,4.512-14.314,3.244.087-2.168-1.488-2.778-3.05-3.123-1.83-5.354.647-9.639,2.925-14.151a16.266,16.266,0,0,0-12.2-.022c.887,1.919,1.686,3.555,2.406,5.225a12.82,12.82,0,0,1,1.032,6.831c-.112.841-.653,2.308-1.026,2.317-2.093.048-2.316,1.535-2.529,2.91-5.506,1.867-9.942-.734-14.486-3.06a21.54,21.54,0,0,0,.039,12.383c1.472-.742,2.794-1.437,4.141-2.083a15,15,0,0,1,8.585-1.373c.707.093,1.951.689,1.931.989-.129,2,1.327,1.977,2.519,2.2,1.618,3.97,1.462,4.852-2.479,14.386a14.437,14.437,0,0,0,11.951-.058c-2.131-4.418-4.829-8.761-2.688-14.176,1.3-.246,2.77-.389,2.824-2.371.009-.348,1.287-.866,2.021-.951a13.248,13.248,0,0,1,7.149.922c1.718.782,3.406,1.633,5.279,2.536A19.294,19.294,0,0,0,571.935,373.741Z" transform="translate(-517.75 -329.75)"/>
      <path id="Path_6098" data-name="Path 6098" class="cls-1" d="M866.947,329.75v25.293h-5.63L850.85,337.925l-.464.115v17.016H845.37a21.388,21.388,0,0,1-.223-2.214c-.018-6.688,0-13.375-.017-20.063,0-1.009-.085-2.018-.13-3.028h6.706l9.5,15.278c.538-2.427.65-11.593.25-15.278Z" transform="translate(-772.452 -329.75)"/>
      <path id="Path_6099" data-name="Path 6099" class="cls-1" d="M1532.84,372.676c-.635.743-1.252,1.5-1.907,2.226-4.478,4.958-13.031,3.518-15.293-2.634a12.258,12.258,0,0,1-.073-8.062c1.665-5.226,8.128-7.331,12.767-4.975a7.2,7.2,0,0,1,3.382,3.758c.347.8.748,1.582,1.124,2.373v3.658c-2.129-.022-4.258-.067-6.386-.058-2.082.009-4.163.072-6.291.113.582,3.464,1.141,4.343,2.86,4.923,2.541.857,3.968-.695,5.28-2.645l4.538.716Zm-12.655-6.861h7.094c-.078-2.963-.84-4-2.952-4.211C1521.882,361.364,1520.81,362.411,1520.185,365.815Z" transform="translate(-1293.86 -351.948)"/>
      <path id="Path_6100" data-name="Path 6100" class="cls-1" d="M1485.127,329.75v25.281h-4.877V329.75Z" transform="translate(-1266.875 -329.75)"/>
      <path id="Path_6101" data-name="Path 6101" class="cls-1" d="M1066.26,360.851l-5.416,18.436H1056.2l-3.073-11.542-.5.022-2.935,11.52h-4.318l-5.283-18.438h5.561l2.609,10.377.421.058,2.554-10.389h4.627c.875,3.432,1.767,6.927,2.658,10.422l.41.061,3.208-10.527Z" transform="translate(-924.294 -353.956)"/>
      <path id="Path_6102" data-name="Path 6102" class="cls-1" d="M1261.283,365.2c-.061-2.363-.456-3.1-1.787-3.492-2.055-.6-3.668.095-5.481,2.486l-4.067-.718c.952-3.057,2.993-4.379,5.828-4.9a13.2,13.2,0,0,1,5.415,0c3.331.746,4.905,2.379,5.044,5.822.123,3.042.025,6.093.062,9.14.014,1.207.13,2.413.21,3.792h-4.377l-.978-2.624c-1.67,2.586-4.093,3.15-6.871,2.9a4.9,4.9,0,0,1-4.6-3.368c-.812-2.21-.6-4.346,1.175-5.855a12.553,12.553,0,0,1,4.518-2.282A43.3,43.3,0,0,1,1261.283,365.2Zm-.228,3.191c-2.713-.153-3.94.074-5.125.947a3.079,3.079,0,0,0-.95,3.988,2.877,2.877,0,0,0,3.76.82Q1261.872,372.723,1261.055,368.39Z" transform="translate(-1087.07 -351.965)"/>
      <path id="Path_6103" data-name="Path 6103" class="cls-1" d="M968.564,371.17l4.055.393a8.127,8.127,0,0,1-8.52,6.056c-5.523-.162-9.051-4.138-8.957-10.094.086-5.48,4.042-9.557,9.311-9.6a8.289,8.289,0,0,1,8.3,7.373c.063.5.073,1.012.087,1.519s0,.993,0,1.755H961.048c-.58,2.5.106,4.266,1.785,5.02C964.763,374.463,966.471,373.771,968.564,371.17Zm-7.848-5.628H967.8c-.353-3.169-1.428-4.329-3.754-4.234C961.871,361.4,960.9,362.588,960.717,365.542Z" transform="translate(-858.176 -351.682)"/>
      <path id="Path_6104" data-name="Path 6104" class="cls-1" d="M859.412,462.462c-3.832,1.733-4.111,2.128-4.12,6.318-.007,3.555-.052,7.111.007,10.665.083,5.061-3.414,8.062-7.591,8.759a19.69,19.69,0,0,1-6.941-.214,7.4,7.4,0,0,1-6.148-7.594c.028-4.571.012-9.141,0-13.712-.005-2.97-.016-2.965-3.105-3.573-.175-.034-.319-.225-.7-.507,1.969-1.092,3.972-.439,5.855-.536a25.905,25.905,0,0,1,5.784.162c-.421.516-.519.762-.658.788-3.512.642-3.518.638-3.524,4.2-.006,3.961-.014,7.922.006,11.884a7.262,7.262,0,0,0,1.825,5.331c2.642,2.7,5.894,2.467,9.091,1.548,2.887-.83,4.3-3.205,4.328-6.6q.047-5.789,0-11.579c-.021-3.329-.25-3.592-3.568-4.635a7.026,7.026,0,0,1-1.086-.711Z" transform="translate(-761.414 -432.651)"/>
      <path id="Path_6105" data-name="Path 6105" class="cls-1" d="M1337.226,371.57l3.187-.533c1.649.969,2.865,1.8,4.186,2.4a3.41,3.41,0,0,0,2.066.045c1.078-.263,2.227-.62,2.213-2.087-.015-1.505-1.2-1.687-2.288-1.952a50.68,50.68,0,0,1-5.281-1.3c-4.533-1.646-4.262-6.916-1.126-9.268a8.561,8.561,0,0,1,12.547,3l-3.484.959a5.163,5.163,0,0,0-4.83-2.014c-1.161.171-1.975.725-2.064,1.849-.084,1.062.81,1.6,1.723,1.837,1.855.487,3.755.81,5.595,1.342a4.814,4.814,0,0,1,3.441,2.724,5.307,5.307,0,0,1-1.436,6.34C1347.531,378.717,1339.681,377.054,1337.226,371.57Z" transform="translate(-1155.557 -351.171)"/>
      <path id="Path_6106" data-name="Path 6106" class="cls-1" d="M1178.791,365.115l-4.24.444a17.713,17.713,0,0,0-1.286-2.333c-1.671-2.2-4.227-2.1-5.838.172-1.351,1.907-1.394,7.132-.074,9.054a3.626,3.626,0,0,0,5.955.279,16.421,16.421,0,0,0,1.264-2.276l4.012.549c-.233,4.155-4.037,6.967-9,6.752-5.177-.224-8.437-3.578-8.538-8.757a14.38,14.38,0,0,1,.365-4.216c1.778-6.147,8.96-7.92,13.594-5.551C1177.233,360.371,1178.4,362.307,1178.791,365.115Z" transform="translate(-1018.425 -351.908)"/>
      <path id="Path_6107" data-name="Path 6107" class="cls-1" d="M1422.72,340.985l3.707.173c.066,1.039.127,2.009.2,3.191l-3.76.468c0,3.231-.015,6.352.008,9.472a1.86,1.86,0,0,0,1.878,1.98c.492.054.988.068,1.655.111v3.306a5.508,5.508,0,0,1-.856.277c-6.416.958-7.912-1.729-8.015-6.485-.061-2.827-.011-5.656-.011-8.594l-2.294-.5V341.3l2.13-.442c.094-1.308.193-2.688.3-4.228l5.052-1Z" transform="translate(-1216.272 -334.321)"/>
      <path id="Path_6108" data-name="Path 6108" class="cls-1" d="M963.308,514.171a18.491,18.491,0,0,1-8.809.263c.061-.167.087-.453.189-.484,2.672-.807,2.687-.8,2.706-3.427.018-2.436,0-4.871,0-7.307,0-3.735,0-3.735-3.2-5.521a16.691,16.691,0,0,1,5.6-.32l.224,3.442a16.906,16.906,0,0,1,1.936-1.758,10.292,10.292,0,0,1,3.16-1.683c4.039-.866,6.635,1.261,6.848,5.537.116,2.328.02,4.667.025,7,.007,3.259.009,3.259,3.242,4.266-1.552,1.2-3.177.568-4.642.626a10.94,10.94,0,0,1-4.452-.245c.135-.316.171-.6.28-.628,2.662-.79,2.682-.785,2.7-3.425.014-2.334.035-4.67-.047-7-.09-2.6-1.283-4.126-3.294-4.434a4.572,4.572,0,0,0-5.021,3.1c-1.108,3.231-.9,6.6-.516,9.928C960.44,513.835,962.139,513.6,963.308,514.171Z" transform="translate(-857.442 -460.066)"/>
      <path id="Path_6109" data-name="Path 6109" class="cls-1" d="M1517.214,498.484h6.966c0,.327.067.644-.01.684-1.82.944-2.678,2.6-3.436,4.392-1.772,4.185-3.563,8.362-5.448,12.5a31.606,31.606,0,0,1-2.8,5,4.861,4.861,0,0,1-5.06,2.061,2.248,2.248,0,0,1-2.016-2.564c.1-.922.611-1.639,1.527-1.523a2.52,2.52,0,0,1,1.471,1.177,5.291,5.291,0,0,1,.313,1.842c.648-.191,1.239-.2,1.553-.492a12.763,12.763,0,0,0,2.168-2.476c2.052-3.321,2.01-3.34.336-6.891q-1.68-3.564-3.323-7.145c-1.026-2.241-1.867-4.594-4.623-6.3a16.283,16.283,0,0,1,8.468.323c-.417.137-.837.267-1.252.411a1.551,1.551,0,0,0-.98,2.4c1.483,3.182,3.01,6.343,4.714,9.92a75.18,75.18,0,0,0,4.279-9.922,1.629,1.629,0,0,0-.917-2.03C1518.63,499.564,1518.174,499.177,1517.214,498.484Z" transform="translate(-1286.004 -460.977)"/>
      <path id="Path_6110" data-name="Path 6110" class="cls-1" d="M1193.737,505.582h-12.16c.058,3.125.319,5.894,3.287,7.17,3.813,1.64,6.6-.159,8.694-3.6l.416.49a4.5,4.5,0,0,1-.331,1.223,7.871,7.871,0,0,1-7.994,3.911c-3.553-.36-5.88-2.776-6.923-6.337a10.492,10.492,0,0,1,.554-7.116c1.6-3.937,5.275-5.681,9.453-4.628C1192.07,497.539,1194.206,501.174,1193.737,505.582Zm-12.715-1.013c3.1,0,5.5-.019,7.906.008,1.29.014,1.794-.784,1.983-1.857.327-1.855-1.431-4.543-3.377-5.26a4.033,4.033,0,0,0-4.873,2.044A35.18,35.18,0,0,0,1181.022,504.569Z" transform="translate(-1031.891 -459.453)"/>
      <path id="Path_6111" data-name="Path 6111" class="cls-1" d="M1458.763,483.21c.923,4.482-.961,6.73-4.905,6.524-2.686-.141-4.042-1.457-4.122-4.229-.082-2.839-.018-5.681-.018-8.523V473.8l-3.293-.486c1.491-1.342,2.985-2.256,3.846-3.581.893-1.376,1.173-3.15,1.824-5.051,1.126,2.386.13,4.828.79,7.267l5.85.429c-.865.672-1.172,1.114-1.5,1.132-1.4.08-2.8.034-4.546.034-.013,1.94-.031,3.633-.033,5.327,0,2.232-.061,4.467.042,6.7a2.651,2.651,0,0,0,2.064,2.685,2.78,2.78,0,0,0,2.906-1.74A29.116,29.116,0,0,0,1458.763,483.21Z" transform="translate(-1240.548 -434.767)"/>
      <path id="Path_6112" data-name="Path 6112" class="cls-1" d="M1101.812,516.6c-.527-.881-.923-1.421-1.193-2.017-1.8-3.959-3.615-7.91-5.32-11.909-.692-1.623-1.481-3.066-3.361-3.761a13.83,13.83,0,0,1,8.479-.09l-3.022,1.389a122.894,122.894,0,0,0,5.092,11.884c1.6-3.79,2.95-6.909,4.218-10.062a1.607,1.607,0,0,0-.915-2.261c-.517-.233-.993-.556-2.012-1.138a18.285,18.285,0,0,1,8.215.029c-3.13,1.254-3.889,3.541-4.8,5.747-1.394,3.363-2.846,6.7-4.289,10.045C1102.631,515.079,1102.289,515.668,1101.812,516.6Z" transform="translate(-964.646 -460.845)"/>
      <path id="Path_6113" data-name="Path 6113" class="cls-1" d="M1331.57,514.156l-1.985,1.422c-.617-2.369-.284-4.392-.383-6.483,1.708.107,1.693,1.4,2.152,2.184a5.944,5.944,0,0,0,6,3.314,6.027,6.027,0,0,0,2.3-.7,2.84,2.84,0,0,0,1.572-2.755,2.448,2.448,0,0,0-1.88-2.173c-1.456-.412-2.94-.725-4.4-1.111a15.41,15.41,0,0,1-2.6-.806,4.212,4.212,0,0,1-2.674-4.057,4.857,4.857,0,0,1,2.659-4.754c2.41-1.238,4.717-.714,7.023.6l1.885-1.243.53,5.9-.594.162c-.49-.822-.971-1.65-1.472-2.466a5.158,5.158,0,0,0-5.436-2.543,3.554,3.554,0,0,0-3.24,2.741c-.18,1.271.7,2.443,2.454,3.007a41.408,41.408,0,0,0,4.122,1.014c4.207.888,5.65,2.667,4.916,6.119-.585,2.752-4.048,4.661-7.281,3.918A35.2,35.2,0,0,1,1331.57,514.156Z" transform="translate(-1149.31 -460.34)"/>
      <path id="Path_6114" data-name="Path 6114" class="cls-1" d="M1260.855,496.3v6.661c.953-1.776,1.53-2.906,2.157-4.008a6.777,6.777,0,0,1,4.146-3.348,2.142,2.142,0,0,1,2.659,1.377,2.594,2.594,0,0,1-.494,1.915,2.367,2.367,0,0,1-1.855.572c-.627-.1-1.173-.7-1.727-1.062-1.72.242-2.377,1.541-2.991,2.811-1.462,3.023-1.439,6.271-1.324,9.522a1.581,1.581,0,0,0,1.487,1.631c.878.129,1.772.159,3.281.284-2.217,1.447-4.11.751-5.862.871-1.787.123-3.59.027-5.582.027.472-1.51,1.447-.987,2.121-1.132a1.717,1.717,0,0,0,1.6-1.854c-.019-3.651-.01-7.3-.006-10.954a2.291,2.291,0,0,0-1.951-2.358,5.5,5.5,0,0,1-1.625-.56A9.142,9.142,0,0,1,1260.855,496.3Z" transform="translate(-1091.364 -458.78)"/>
      <path id="Path_6115" data-name="Path 6115" class="cls-1" d="M1051.677,497.929l6.48-.582v16.026l3.816.93c-2.218.836-6.468.952-9.72.4.035-.18.032-.5.11-.52,2.951-.8,2.955-.8,2.96-4.011,0-2.632.02-5.264,0-7.9-.026-2.768-.045-2.764-2.765-3.305a4.775,4.775,0,0,1-.789-.306Z" transform="translate(-933.311 -460.193)"/>
      <path id="Path_6116" data-name="Path 6116" class="cls-1" d="M1409.893,515.464h-9.739l-.087-.522a9.908,9.908,0,0,1,1.711-.4,1.756,1.756,0,0,0,1.863-1.932c.029-3.543.041-7.087-.017-10.63a2.182,2.182,0,0,0-2.274-2.331,17.818,17.818,0,0,1-2.265-.537c2.649-1.181,4.758-.956,7.121-.861V509.59c0,.81-.025,1.621.006,2.43.083,2.113.183,2.2,2.46,2.53a4.442,4.442,0,0,1,.844.242C1409.579,514.814,1409.6,514.94,1409.893,515.464Z" transform="translate(-1203.702 -460.836)"/>
      <path id="Path_6117" data-name="Path 6117" class="cls-1" d="M1418,467.972a1.848,1.848,0,0,1-2.037,1.714,1.923,1.923,0,0,1-1.63-2.139,1.852,1.852,0,1,1,3.668.424Z" transform="translate(-1215.564 -435.613)"/>
      <path id="Path_6118" data-name="Path 6118" class="cls-1" d="M1067.469,468a1.931,1.931,0,1,1-3.855-.238,2.115,2.115,0,0,1,2.031-1.823A2.239,2.239,0,0,1,1067.469,468Z" transform="translate(-942.601 -435.743)"/>
      <path id="Path_6119" data-name="Path 6119" class="cls-1" d="M588.5,368.2c.414-1.629.216-2.352-.952-2.488a9.162,9.162,0,0,0-3.273.229c-1.948.5-3.83,1.252-5.764,1.814-1.81.526-2.246.25-2.9-1.547-1.471-4.071-4.37-5.251-8.25-3.317a21.825,21.825,0,0,0-2.311,1.441,23.173,23.173,0,0,1-7.132,3.171c-1.99.516-4.289.864-4.668,3.9l-2.38-1.314-3.435,1.853-.5-1.422a.747.747,0,0,0,.223-.063c.037-.024.036-.106.052-.161l-.224.274-2.672,1.092-.414-1.035-2.937,1.172-1.217-2.277L538,373.2c-.157-1.817-.253-2.912-.367-4.234a11.844,11.844,0,0,1-1.292.645,12.06,12.06,0,0,1-1.416.319c-.083-2.112,1.7-1.5,2.495-2.153.154-1.617-2.576-.261-2.177-2.126,1.414-.7,2.12.818,3.286,1.054l.805-2.208.479.029.612,3.159c1.843,1.461,3.984,1.094,6.09.928.468-.037,1.2-.343,1.357-.153,1.352,1.663,2.88.947,3.921-.02a5.032,5.032,0,0,1,4.435-1.474v-2.239l2.769-.79-.987-3.483c3.167-.49,6.22-.982,9.28-1.43,1.8-.264,3.646-.3,5.4-.721a15.616,15.616,0,0,1,7.171.384,18.56,18.56,0,0,0,3.615.3,1.746,1.746,0,0,0,1.938-1.543,1.864,1.864,0,0,0-1.359-2.38,32.991,32.991,0,0,0-4.186-.411l.057.07c3.207-1.365,5.247-.939,7.287,1.433l3.732-.452.1.588a7.184,7.184,0,0,0-1.649.45,5.247,5.247,0,0,0-1.657,1.3,5.459,5.459,0,0,1-5.077,2.156c-.884-.062-1.775-.01-2.676-.01.218,2.783,1.149,3.487,3.117,2.6a11.175,11.175,0,0,0,1.31-.757c.332-.208.643-.448.989-.691l.859.982,2.692-.86c.225.146.39.223.382.254-.072.278-.175.549-.359,1.084l1.387.559.848,3.187,3.615.977-.089.468-3.3-.221,1.651,2.334c-1.427,1.06-1.888-.824-2.894-.849l-1.866,2.373c-.818-1.464,1.276-2.349.1-3.528Z" transform="translate(-531.114 -348.592)"/>
      <path id="Path_6120" data-name="Path 6120" class="cls-1" d="M589.357,351.989l-2.2.21v2.942l-1.737-.539c-1.183.634-1.545,2.661-3.542,2.381v-1.66l-2.993,1.138.448-2.617-1.887,1.074v-5.214l-1.275-1.39,2.185-1.127-1.641-1.508c.224-.2.373-.424.477-.4a2.6,2.6,0,0,0,2.668-1.034c-1.069-1.931,1.441-2.39,1.582-3.827.006-.061.158-.108.33.124l2.465-.771,1.335,1.071,1.607-.752c.9,1.662.9,1.662,2.68,1.371.051.4-.039.906.174,1.168,1.631,2,1.009,3.778-.356,5.6a3.572,3.572,0,0,0-.31,1.734C589.32,350.556,589.357,351.159,589.357,351.989Zm-6.628-1.01-.081-.094-.14,1.361a5.113,5.113,0,0,0,1.071-.239c.7-.357,1.369-.767,2.241-1.264l-1.915-1.056,2-1.148c-1.773-.337-1.772-.346-2.909-1.534-.085-.089-.343-.012-.749-.012l.274,1.979-2.086-.927.6,3.012Zm.079-6.694-.4.2c.061.323.018.745.207.944a3.757,3.757,0,0,0,1.07.57l.286-.4Zm4.457,3.119.04-.581a7.665,7.665,0,0,0-.78-.3c-.317-.086-.646-.127-.969-.188l-.135.554Z" transform="translate(-563.221 -337.547)"/>
      <path id="Path_6121" data-name="Path 6121" class="cls-1" d="M658.941,400.844c2.106,1.492,2.106,1.492,4.374-.113-.379-1.315-3.267-.975-2.163-3.416a13.484,13.484,0,0,1,2.168-.517c2-.17,3.117.649,3.863,2.576.412,1.065.925,2.091,1.447,3.256l-2.69-.493-.89,2.2c-.415-.281-1.025-.72-1.04-.7-1.088,1.417-2.364.151-3.715.11l.242,2.31-.511.217-1.594-2.441-1.993,1.914c-.174-.429-.42-.742-.344-.9.305-.624.711-1.2,1.153-1.913l-2.7-.99c1.6-.987,2.787-.3,4.128-.009l.322-1.145Z" transform="translate(-624.219 -381.917)"/>
      <path id="Path_6122" data-name="Path 6122" class="cls-1" d="M673.359,344.334c-2.957,1.517-5.988,2.688-9.423,2.171a2.14,2.14,0,0,0-1.158.317c-2.539,1.292-4.68-.153-6.824-1.1-.517-.229-.833-1.308-.911-2.031-.1-.959.745-1.46,1.546-1.584,3.373-.522,6.757-.971,10.144-1.389a11.322,11.322,0,0,1,2.112.126l-.172,1.5,3.775-.384.1.457a39.671,39.671,0,0,1-5.7,1.776,13.482,13.482,0,0,1-4.45-.392c-1.182-.216-2.3-.75-3.475-1.042a2.436,2.436,0,0,0-3.227,1.6c1.062,1.8,2.9,1.824,4.526,1.686,3.412-.287,6.8-.869,10.2-1.315.992-.13,1.991-.213,2.987-.317Z" transform="translate(-624.6 -338.266)"/>
      <path id="Path_6123" data-name="Path 6123" class="cls-1" d="M536.8,347.209l2.168-1.6-1.4-2.33c1.7-.928,1.891,1.047,3.167,1.539l.53-2.822c1.451.848.761,2.365,1.124,3.831l2.222-2.092c-.5,1.892-1.267,3.276-1.084,4.52.2,1.387,1.273,2.646,2.109,4.232l-.555,2.271-2.986-1.013.388-.786-2.4-1.1,1.3-.637-1.73-1.433c.232-.829.64-1.479.491-1.956-.195-.624-.9-.724-1.516-.3-.767.527-1.325.045-1.893-.391Z" transform="translate(-532.52 -339.277)"/>
      <path id="Path_6124" data-name="Path 6124" class="cls-1" d="M765.59,416.294l-3.052.771c1.113-1.726,2.112-1.218,3.115-.673Z" transform="translate(-708.271 -396.782)"/>
      <path id="Path_6125" data-name="Path 6125" class="cls-1" d="M667.35,411.378l-2.071-.8c1.407-.415,1.989-.216,2.016.851Z" transform="translate(-632.574 -392.506)"/>
      <path id="Path_6126" data-name="Path 6126" class="cls-1" d="M536.349,365.227l-.108.447.183-.38Z" transform="translate(-532.142 -357.362)"/>
      <path id="Path_6127" data-name="Path 6127" class="cls-1" d="M659.723,543.309a3.689,3.689,0,0,1-3.509,3.849,3.739,3.739,0,0,1-3.849-3.831,3.665,3.665,0,0,1,3.5-3.845A3.711,3.711,0,0,1,659.723,543.309Z" transform="translate(-622.522 -492.985)"/>
      <path id="Path_6128" data-name="Path 6128" class="cls-1" d="M605.466,389.4a1.259,1.259,0,0,1,.151-.253c.03-.031.117-.008.178-.009l-.41.168Z" transform="translate(-585.957 -375.965)"/>
    </g>
  </g>
</svg>
