<svg version="1.1" id="Layer_1" xmlns="http://www.w3.org/2000/svg" xmlns:xlink="http://www.w3.org/1999/xlink" x="0px" y="0px"
	 viewBox="0 0 541 184" width="270" height="92" style="enable-background:new 0 0 541 184;" xml:space="preserve">
<style type="text/css">
	.st0{fill:#FFFFFF;}
</style>
<g>
	<path class="st0" d="M94.9,81.6c0-5.2,0-9.6-0.1-13.3c-0.1-3.7-0.4-7-1-9.9c-0.6-2.8-1.4-5.4-2.6-7.6c-1.2-2.2-2.8-4.4-4.8-6.4
		c-3-3-6.5-5.3-10.4-7c-4-1.6-8.1-2.4-12.5-2.4c-4.4,0-8.5,0.8-12.5,2.4c-3.9,1.6-7.4,3.9-10.4,7c-2.1,2.1-3.7,4.2-4.8,6.4
		c-1.2,2.2-2,4.8-2.6,7.6c-0.6,2.8-0.9,6.1-1,9.9C32,72,32,76.5,32,81.6c0,5.2,0,9.6,0.1,13.4c0.1,3.8,0.4,7.1,1,9.9
		c0.6,2.8,1.4,5.3,2.6,7.5c1.2,2.2,2.8,4.3,4.8,6.4c3,3,6.5,5.3,10.4,7c4,1.6,8.1,2.4,12.5,2.4c4.4,0,8.5-0.8,12.5-2.4
		c4-1.6,7.4-4,10.4-7c2.1-2.1,3.7-4.2,4.8-6.4c1.2-2.2,2-4.7,2.6-7.5c0.6-2.8,0.9-6.1,1-9.9C94.8,91.3,94.9,86.8,94.9,81.6
		L94.9,81.6z M87.9,81.6c0,4.9-0.1,9.1-0.2,12.6c-0.1,3.5-0.4,6.5-0.9,9c-0.5,2.5-1.2,4.7-2.1,6.6c-0.9,1.8-2.2,3.6-3.9,5.2
		c-2.3,2.3-5,4.1-8,5.3c-3,1.2-6.1,1.8-9.4,1.8c-3.3,0-6.4-0.6-9.4-1.8c-3-1.2-5.7-3-8-5.3c-1.6-1.6-2.9-3.4-3.9-5.2
		c-0.9-1.8-1.7-4-2.1-6.6c-0.5-2.5-0.8-5.5-0.9-9C39,90.7,39,86.5,39,81.6c0-4.9,0.1-9.1,0.2-12.6c0.1-3.5,0.4-6.5,0.9-9
		c0.5-2.5,1.2-4.7,2.1-6.6c0.9-1.8,2.2-3.6,3.9-5.2c2.3-2.3,5-4.1,8-5.3c3-1.2,6.1-1.8,9.4-1.8c3.3,0,6.4,0.6,9.4,1.8
		c3,1.2,5.7,3,8,5.3c1.6,1.6,2.9,3.4,3.9,5.2c0.9,1.8,1.7,4,2.1,6.6c0.5,2.5,0.8,5.5,0.9,9C87.9,72.6,87.9,76.8,87.9,81.6L87.9,81.6
		z"/>
	<path class="st0" d="M158.7,96.5c0-4.9-0.5-9.7-1.6-14.5c-1.1-4.8-3.2-8.7-6.4-11.9c-1.6-1.6-3.8-2.9-6.4-3.9
		c-2.6-1-5.6-1.5-8.8-1.5c-3.5,0-6.8,0.6-9.8,1.7c-3,1.1-5.9,3.5-8.6,7.1v-8h-6.6v91.7h6.6v-37.6c2.8,3.6,5.6,6,8.6,7.1
		c3,1.1,6.3,1.7,9.8,1.7c3.3,0,6.2-0.5,8.8-1.5c2.6-1,4.7-2.3,6.4-3.9c3.2-3.2,5.3-7.2,6.4-11.9C158.2,106.2,158.7,101.4,158.7,96.5
		L158.7,96.5z M152.2,96.5c0,3.3-0.2,6.4-0.6,9.5c-0.4,3.1-1.2,5.9-2.5,8.3c-1.2,2.4-3,4.4-5.3,5.9c-2.3,1.5-5.4,2.3-9.1,2.3
		c-3.8,0-6.8-0.8-9.1-2.3c-2.3-1.5-4.1-3.5-5.3-5.9c-1.2-2.4-2.1-5.2-2.4-8.3c-0.4-3.1-0.6-6.3-0.6-9.5c0-3.2,0.2-6.3,0.6-9.5
		c0.4-3.1,1.2-5.9,2.4-8.4c1.2-2.4,3-4.4,5.3-5.9c2.3-1.5,5.4-2.3,9.1-2.3c3.8,0,6.8,0.8,9.1,2.3c2.3,1.5,4.1,3.5,5.3,5.9
		c1.2,2.4,2.1,5.2,2.5,8.4C152,90.1,152.2,93.3,152.2,96.5L152.2,96.5z"/>
	<path class="st0" d="M218.7,97.9v-3c0-9.5-2.2-17-6.6-22.3c-4.4-5.3-10.5-8-18.3-8c-7.8,0-13.9,2.8-18.3,8.4
		c-4.4,5.6-6.6,13.4-6.6,23.5c0,10.4,2.3,18.3,6.8,23.7c4.5,5.4,11.1,8.1,19.6,8.1c2.6,0,4.9-0.2,7-0.6c2.1-0.4,4-1,5.7-1.8
		c1.8-0.8,3.4-1.8,5-3c1.6-1.2,3.2-2.6,4.7-4.1l-4.9-3.9c-2.7,2.7-5.3,4.6-7.8,5.7c-2.5,1.2-5.6,1.7-9.3,1.7
		c-6.6,0-11.6-2.1-15.1-6.3c-3.4-4.2-5.2-10.3-5.2-18.2H218.7z M212.1,92.6h-36.6c0.1-1.5,0.2-2.7,0.3-3.8c0.1-1.1,0.2-2,0.4-2.8
		c0.2-0.8,0.4-1.6,0.6-2.4c0.2-0.8,0.5-1.7,1-2.6c1.4-3.3,3.5-5.8,6.4-7.7c2.9-1.8,6.1-2.8,9.7-2.8c3.6,0,6.9,0.9,9.7,2.8
		c2.9,1.8,5,4.4,6.4,7.7c0.3,0.9,0.6,1.8,0.9,2.6c0.3,0.8,0.5,1.6,0.6,2.4c0.2,0.8,0.3,1.8,0.4,2.8C211.9,89.9,212,91.1,212.1,92.6
		L212.1,92.6z"/>
	<path class="st0" d="M280.3,127.5V87.8c0-7.4-2.1-13.1-6.4-17.3c-4.1-4-9.6-5.9-16.5-5.9c-7.6,0-13.7,2.7-18.3,8.1v-7.3h-6.6v62.1
		h6.6V89c0-5.9,1.5-10.5,4.6-13.7c3-3.2,7.4-4.8,12.9-4.8c5.6,0,9.8,1.6,12.8,4.8c2.9,3.2,4.4,7.8,4.4,13.8v38.5H280.3z"/>
	<polygon class="st0" points="377.4,127.5 377.4,121.3 328.7,121.3 328.7,35.8 321.7,35.8 321.7,127.5 	"/>
	<path class="st0" d="M432.6,127.5V85c0-6.5-2-11.6-5.9-15.1c-3.9-3.5-10-5.3-18.2-5.3c-5.1,0-9.3,0.7-12.8,2
		c-3.4,1.3-6.5,3.8-9.1,7.5l4.8,4.1c2-2.8,4.2-4.9,6.8-6.1c2.5-1.2,6-1.8,10.4-1.8c6.4,0,10.9,1.3,13.5,3.9c2.7,2.6,4,6.4,4,11.3v7
		h-20.1c-6.8,0-12.1,1.6-15.9,4.7c-3.8,3.1-5.7,7.5-5.7,13.2c0,2.3,0.4,4.6,1.2,6.7c0.8,2.1,1.9,3.9,3.4,5.4c2,2.1,4.4,3.5,7.1,4.4
		c2.8,0.9,6.5,1.3,11.1,1.3c4.4,0,8-0.5,10.8-1.5c2.8-1,5.5-2.8,8.2-5.5v6.2H432.6z M426,105.9c0,5.8-1.2,9.7-3.5,11.9
		c-2.2,2.1-4.7,3.5-7.3,4c-2.6,0.5-5.3,0.8-8.2,0.8c-5.7,0-9.8-1-12.4-3c-2.6-2-3.9-5-3.9-9.1c0-8.3,5.3-12.5,15.9-12.5H426V105.9z"
		/>
	<path class="st0" d="M494.5,96.5c0-4.9-0.5-9.7-1.6-14.5c-1.1-4.8-3.2-8.7-6.4-11.9c-1.6-1.6-3.8-2.9-6.4-3.9
		c-2.6-1-5.6-1.5-8.8-1.5c-3.5,0-6.8,0.6-9.8,1.7c-3,1.1-5.9,3.5-8.6,7.1V35.8h-6.6v91.8h6.6v-8c2.7,3.6,5.6,6,8.6,7.1
		c3,1.1,6.3,1.7,9.8,1.7c3.3,0,6.2-0.5,8.8-1.5c2.6-1,4.7-2.3,6.4-3.9c3.2-3.2,5.3-7.2,6.4-11.9C494,106.2,494.5,101.4,494.5,96.5
		L494.5,96.5z M487.9,96.5c0,3.3-0.2,6.4-0.6,9.5c-0.4,3.1-1.2,5.9-2.4,8.3c-1.2,2.4-3,4.4-5.3,5.9c-2.3,1.5-5.4,2.3-9.1,2.3
		c-3.8,0-6.8-0.8-9.2-2.3c-2.3-1.5-4.1-3.5-5.3-5.9c-1.2-2.4-2.1-5.2-2.4-8.3c-0.4-3.1-0.6-6.3-0.6-9.5c0-3.2,0.2-6.3,0.6-9.5
		c0.4-3.1,1.2-5.9,2.4-8.4c1.2-2.4,3-4.4,5.3-5.9c2.3-1.5,5.4-2.3,9.2-2.3c3.8,0,6.8,0.8,9.1,2.3c2.3,1.5,4.1,3.5,5.3,5.9
		c1.2,2.4,2.1,5.2,2.4,8.4C487.7,90.1,487.9,93.3,487.9,96.5L487.9,96.5z"/>
</g>
</svg>
