<?xml version="1.0" encoding="utf-8"?>
<!-- Generator: Adobe Illustrator 23.0.2, SVG Export Plug-In . SVG Version: 6.00 Build 0)  -->
<svg version="1.1" id="Layer_1" xmlns="http://www.w3.org/2000/svg" xmlns:xlink="http://www.w3.org/1999/xlink" x="0px" y="0px"
	 viewBox="0 0 965.8 3343.2" style="enable-background:new 0 0 965.8 3343.2;" xml:space="preserve">
<style type="text/css">
	.st0{fill:#003571;}
	.st1{fill:none;}
</style>
<g id="Mask_Group_1">
	<g id="Group_17" transform="translate(671.832 -1034)">
		<path id="Path_6" class="st0" d="M-419.8,2058.6c-19.1,101.5-66.8,194.8-65.1,300c2.1,125.8-18.9,248.2-72.8,363.3
			c-9.1,19.5-9.8,37.9-2.6,56.8c23.8,62.9-6.8,139.9,52.2,194.6c8.3,7.7,5.3,29.9-14.1,31.6c-32.3,2.8-67,15.8-92.3-20
			c-34.6-49.2-25.9-106.8-15.5-155.2c19.1-89.5,34.3-178.6,27.7-269c-12.2-169.4,34.5-332.8,44.5-499.7
			c4.2-71.2,7.1-142.8,17.9-213.1c11-71.9,38.5-133.8,129.4-136.2c22.9-0.6,45.3-14.5,68.1-21.6c80.8-25.3,109.5-85.2,72.8-160.5
			c-13.9-28.6-22.4-60.4-38.7-86.3c-45.7-72.4-8.4-141.1,9.4-206.7c15.7-57.8,73.3-73.3,132.5-67.1c54.9,5.8,79.1,40.9,100.1,88.8
			c40.7,92.6,13.7,173.2-26.8,256.4c-49.9,102.5-28.7,145.8,80.6,180.5c26.6,8.4,52.6,19,79.4,26.8c61.3,17.7,89.8,60.9,100.8,120.3
			c17.4,93.9,12.3,189.4,19.9,284c5.6,70.4,14.8,138.6,31.3,207.6c19.8,83,15.3,170.1,9.7,254.7c-7.8,117.9,36.8,229.7,32.4,346.5
			c-2.4,63.2-22.6,79.7-82.3,74c-42.7-4-45.8-30.7-31.7-57.3c47.6-89.6,43.7-183.9,18-274.6c-32.8-115.5-54.7-230.4-54.2-350.8
			c0.3-91.8-46.1-175.8-56.5-284.1C-1.4,2146.4-31.7,2238,4.1,2339.6c27.6,78.2,69.8,152.7,86.6,232.8
			c24.9,118.2,22.8,239.6-0.8,359.5c-14.9,75.8-27,152.2-40.3,228.3c-9.9,56.7-15.2,113-6.7,171.2c31.2,214.5,14.8,426.4-37.4,636.6
			c-34.4,138.5-42.1,277.4,4.5,416.3c18,53.6-47,113.6-102.4,98.4c-24-6.6-29.1-29-26.6-48c13.9-106.6-22.9-213.4,15.8-322.3
			c21.9-61.8,9.8-137.2-0.2-206.2c-19.6-133.9-29.7-267.8-7.1-402.5c2.9-17.4,2.4-35.8,0.4-53.4c-17.3-149.5-59.3-295.1-69.1-446.7
			c-36.2,50-23,109.1-35.8,162.7c-10.1,42.2-14,85.9-22.6,128.5c-17.8,87.6-30.9,174.1-17.4,264.9c14.3,96.1,5.9,193.5-6.2,290.4
			c-13.7,109.3-20.2,216,8.7,328.3c22.2,86.2,0.8,183.8-3.8,276.3c-1.1,22.3-19.2,36.7-43.1,26.3c-34.3-14.9-83.3-11.1-90-64.2
			c-0.5-3.8,0.5-8,1.7-11.7c62.6-182.9,31.7-360.4-16.7-542c-43.8-164.4-38.4-335.9-13-504c18.6-122.8-11.3-239.6-34.6-356.1
			c-38-189.5-43.5-373.5,29.7-556.7c26.3-66,58.6-130.3,53.8-207.9C-372.8,2174.1-404,2120.2-419.8,2058.6"/>
		<path id="Path_7" class="st1" d="M-671.8,4485H294V1168.1h-965.8V4485z"/>
	</g>
</g>
</svg>
