<svg xmlns="http://www.w3.org/2000/svg" width="41.714" height="41.701" viewBox="0 0 41.714 41.701">
  <defs>
    <style>
      .cls-1 {
        fill: #d8d8d7;
      }
    </style>
  </defs>
  <g id="Group_786" data-name="Group 786" transform="translate(0 0)">
    <path id="Path_6070" data-name="Path 6070" class="cls-1" d="M2259.344,1195.758a20.85,20.85,0,1,1,20.838-20.865A20.885,20.885,0,0,1,2259.344,1195.758Zm-10.086-20.925c0,2.109-.03,4.219.008,6.327a3.648,3.648,0,0,0,3.771,3.808c4.164.041,8.329-.018,12.492.024a3.88,3.88,0,0,0,3.876-3.915q-.078-6.164,0-12.33a3.885,3.885,0,0,0-3.878-3.913c-4.109.049-8.221.062-12.33-.006a3.9,3.9,0,0,0-3.956,4C2249.319,1170.828,2249.257,1172.831,2249.258,1174.832Z" transform="translate(-2238.467 -1154.058)"/>
    <path id="Path_6071" data-name="Path 6071" class="cls-1" d="M2290.8,1211.7h2.875a7.259,7.259,0,0,1,.125.939c.01,2.326.021,4.651,0,6.977-.015,1.708-.646,2.346-2.354,2.354q-5.841.026-11.682,0c-1.609-.008-2.277-.667-2.293-2.248-.024-2.379-.009-4.759,0-7.139a8.451,8.451,0,0,1,.1-.893h2.836c-.558,2.342-.311,4.424,1.521,6.109a5.322,5.322,0,0,0,3.975,1.5,5.435,5.435,0,0,0,4.318-2.521A5.612,5.612,0,0,0,2290.8,1211.7Z" transform="translate(-2264.782 -1192.952)"/>
    <path id="Path_6072" data-name="Path 6072" class="cls-1" d="M2298.735,1210.87a3.6,3.6,0,1,1-3.458-3.737A3.621,3.621,0,0,1,2298.735,1210.87Z" transform="translate(-2274.282 -1189.873)"/>
    <path id="Path_6073" data-name="Path 6073" class="cls-1" d="M2315.831,1197.554v-3.282a8.62,8.62,0,0,1,3.4-.167,14.158,14.158,0,0,1,.081,3.449Z" transform="translate(-2290.676 -1181.025)"/>
  </g>
</svg>
