<svg xmlns="http://www.w3.org/2000/svg" width="41.623" height="41.619" viewBox="0 0 41.623 41.619">
  <defs>
    <style>
      .cls-1 {
        fill: #ffffff;
      }
    </style>
  </defs>
  <g id="Group_784" data-name="Group 784" transform="translate(0)">
    <path id="Path_6068" data-name="Path 6068" class="cls-1" d="M2259.42,1332.209a20.809,20.809,0,1,1-20.812,20.683A20.8,20.8,0,0,1,2259.42,1332.209Zm10.377,30.19c0-2.274.03-4.377-.014-6.478a18.558,18.558,0,0,0-.3-2.727,4.813,4.813,0,0,0-4.786-3.806,5.811,5.811,0,0,0-3.817,1.545l-.473-1.364h-4.16v12.765a22.518,22.518,0,0,0,4.447-.005c0-.758,0-1.35,0-1.942,0-1.787-.026-3.575.015-5.361a2.157,2.157,0,0,1,1.993-2.171,2.058,2.058,0,0,1,2.232,1.67,11.54,11.54,0,0,1,.282,2.241c.043,1.515,0,3.032.021,4.549a7.342,7.342,0,0,0,.175,1.084Zm-16.18-.036c-.057-4.259.084-8.382-.089-12.556a10.309,10.309,0,0,0-3.764.123v12.433Zm-2.134-18.807a2.225,2.225,0,0,0-2.409,2.236,2.494,2.494,0,0,0,2.511,2.231,2.272,2.272,0,0,0,2.321-2.34C2253.889,1344.265,2253.054,1343.532,2251.483,1343.555Z" transform="translate(-2238.607 -1332.209)"/>
  </g>
</svg>
