<svg xmlns="http://www.w3.org/2000/svg" width="163" height="163" viewBox="0 0 163 163">
  <defs>
    <style>
      .cls-1 {
        fill: #fff;
        opacity: 1;
      }
    </style>
  </defs>
  <path id="Subtraction_1" data-name="Subtraction 1" class="cls-1" d="M81.5,163a82.1,82.1,0,0,1-16.425-1.656,81.054,81.054,0,0,1-29.143-12.263A81.738,81.738,0,0,1,6.4,113.224a81.091,81.091,0,0,1-4.749-15.3,82.3,82.3,0,0,1,0-32.85A81.054,81.054,0,0,1,13.919,35.933,81.738,81.738,0,0,1,49.777,6.4a81.091,81.091,0,0,1,15.3-4.749,82.3,82.3,0,0,1,32.85,0,81.053,81.053,0,0,1,29.142,12.263A81.738,81.738,0,0,1,156.6,49.777a81.09,81.09,0,0,1,4.749,15.3,82.3,82.3,0,0,1,0,32.85,81.053,81.053,0,0,1-12.263,29.142A81.738,81.738,0,0,1,113.224,156.6a81.088,81.088,0,0,1-15.3,4.749A82.1,82.1,0,0,1,81.5,163ZM68.008,49.688A5.086,5.086,0,0,0,64.525,51.1,4.935,4.935,0,0,0,63,54.695v53.61a4.936,4.936,0,0,0,1.525,3.6,5.086,5.086,0,0,0,3.484,1.409,4.932,4.932,0,0,0,2.507-.686l46.059-26.806a5,5,0,0,0,0-8.643l-46.059-26.8A4.927,4.927,0,0,0,68.008,49.688Z"/>
</svg>
