<svg xmlns="http://www.w3.org/2000/svg" width="41.491" height="41.432" viewBox="0 0 41.491 41.432">
  <defs>
    <style>
      .cls-1 {
        fill: #ffffff;
      }
    </style>
  </defs>
  <g id="Group_785" data-name="Group 785" transform="translate(0 0)">
    <path id="Path_6069" data-name="Path 6069" class="cls-1" d="M2460.39,1353.223c-.276,11.656-9.1,20.686-20.75,20.7a20.716,20.716,0,1,1,.032-41.432C2451.3,1332.519,2460.131,1341.549,2460.39,1353.223Zm-10.039-7.164-1.408.173c.191-.805,1.114-1.283,1.026-2.3l-2.686,1.01a4.036,4.036,0,0,1-.382-.252,4.1,4.1,0,0,0-4.785-.878,4.63,4.63,0,0,0-2.867,4.344,10.013,10.013,0,0,1-.164,1.17c-3.882-.093-6.662-2.068-9.065-4.764-1.352,1.7-1.184,3.327.719,6.348l-1.422-.445c-.2,2.174.513,3.343,2.9,4.874l-1.325.3c.766,2.085,1.276,2.547,3.879,3.427-1.141.546-2.083,1.033-3.055,1.451-.957.411-2.1-.09-3.308.553a13.075,13.075,0,0,0,8.35,2.006,12.3,12.3,0,0,0,8-4.17,15.008,15.008,0,0,0,3.629-9.341,2.545,2.545,0,0,1,.8-1.846c.482-.47,1.176-.837,1.153-1.671a.444.444,0,0,0,.127-.048c.021-.017.02-.064.028-.1Z" transform="translate(-2418.899 -1332.492)"/>
  </g>
</svg>
