<svg xmlns="http://www.w3.org/2000/svg" width="41.625" height="41.623" viewBox="0 0 41.625 41.623">
  <defs>
    <style>
      .cls-1 {
        fill: #d8d8d7;
      }
    </style>
  </defs>
  <g id="Group_783" data-name="Group 783" transform="translate(0 0)">
    <path id="Path_6067" data-name="Path 6067" class="cls-1" d="M2079.4,1195.816a20.812,20.812,0,1,1,20.828-20.673A20.807,20.807,0,0,1,2079.4,1195.816Zm4.784-20.813c.1-1.386.186-2.551.279-3.812l-3.412-.189c0-.749-.026-1.341.006-1.93.054-1,.251-1.173,1.3-1.228.628-.033,1.256-.042,1.895-.062a15.732,15.732,0,0,0-.013-3.784,37.361,37.361,0,0,0-3.986.025,4.043,4.043,0,0,0-3.747,4.006c-.045.592,0,1.19-.023,1.784-.018.41-.089.817-.133,1.194l-2,.226v3.68l2.079.188c.174,3.662-.066,7.259.137,10.854h4.488v-3.618c0-1.244-.006-2.488,0-3.732.008-1.167.031-2.333.05-3.6Z" transform="translate(-2058.602 -1154.192)"/>
  </g>
</svg>
